<svg width="80" height="80" fill="none" xmlns="http://www.w3.org/2000/svg"><g clip-path="url(#a)"><path d="M0 40C0 17.909 17.909 0 40 0s40 17.909 40 40-17.909 40-40 40S0 62.091 0 40Z" fill="#526EFF"/><path d="M40 16.667c4.088 0 8.01 1.602 10.9 4.454a15.105 15.105 0 0 1 4.516 10.754c0 4.034-1.624 7.902-4.515 10.754a15.525 15.525 0 0 1-10.902 4.454c-4.088 0-8.01-1.602-10.9-4.454a15.105 15.105 0 0 1-4.516-10.754c0-4.033 1.624-7.902 4.515-10.754A15.524 15.524 0 0 1 40 16.667Zm0 38.02c17.035 0 30.833 6.806 30.833 15.209v28.02H9.166v-28.02c0-8.403 13.798-15.208 30.833-15.208Z" fill="#fff"/></g><defs><clipPath id="a"><path d="M0 40C0 17.909 17.909 0 40 0s40 17.909 40 40-17.909 40-40 40S0 62.091 0 40Z" fill="#fff"/></clipPath></defs></svg>