<svg width="69" height="27" viewBox="0 0 69 27" fill="none" xmlns="http://www.w3.org/2000/svg">
<path d="M16.5076 5.2265C16.9233 5.01116 17.2564 4.8208 17.5798 4.61543C17.9686 4.36862 18.0176 4.1122 17.7525 3.7179C17.1291 2.79101 16.2228 2.34228 15.1375 2.26017C14.3653 2.20171 13.5872 2.19394 12.8126 2.20956C12.5795 2.2142 12.3495 2.37331 12.118 2.46154C12.2346 2.67946 12.3137 2.93099 12.4739 3.11001C13.5807 4.34749 14.2463 5.78498 14.4214 7.43044C14.5152 8.31233 13.894 9.14894 12.9278 9.40704C11.8413 9.69748 10.8439 9.43903 9.97801 8.70524C9.82265 8.5736 9.62907 8.48603 9.47728 8.35095C8.46378 7.45011 7.92885 6.28765 7.77403 4.97014C7.72556 4.55869 7.86525 4.08754 8.04014 3.69789C8.21746 3.30263 8.07445 3.13649 7.75225 3.08447C6.51453 2.88459 5.29049 2.81067 4.11035 3.4154C3.61161 3.67093 3.06253 3.87053 2.51341 3.97468C1.95307 4.08092 1.75189 4.40141 1.65263 4.89023C1.62324 5.0346 1.56028 5.22785 1.45159 5.2875C1.27873 5.38247 1.05352 5.42085 0.852494 5.41541C0.607794 5.40881 0.318198 4.80326 0.393607 4.51396C0.526684 4.00358 0.770882 3.62098 1.26575 3.32845C2.02197 2.88152 2.80456 2.5418 3.64347 2.30194C3.99292 2.20199 4.31913 2.02259 4.66713 1.9157C5.8569 1.55065 7.07082 1.62871 8.28755 1.72977C8.59331 1.7552 8.98498 1.8125 9.1996 1.66091C9.761 1.26435 10.4192 1.31723 11.0183 1.12471C11.1023 1.09771 11.2103 1.04571 11.2757 1.07503C12.3334 1.55035 13.3393 0.906272 14.3867 0.917348C15.7498 0.931947 16.9481 1.1287 17.8984 2.16574C18.2142 2.51039 18.5613 2.83819 18.8157 3.22508C19.2181 3.83648 19.7754 3.99364 20.4261 3.85116C21.0528 3.71412 21.6482 3.86233 22.2439 3.96801C22.526 4.01824 22.8317 4.18659 23.0336 4.3924C23.8259 5.20035 24.6212 6.01194 25.3294 6.89141C25.6031 7.23162 25.9075 7.30627 26.2479 7.34122C26.9328 7.41156 27.6242 7.41699 28.3115 7.46764C28.4717 7.47938 28.6436 7.53717 28.7805 7.62162C29.5604 8.1029 30.3039 8.65227 31.1167 9.06726C31.5314 9.279 31.7719 9.59281 32.0752 9.89438C32.5518 10.3682 33.2347 10.1864 33.8272 10.2854C34.6699 10.4261 35.5483 10.1194 36.379 10.4727C36.5309 10.5373 36.7204 10.5427 36.8449 10.6377C37.8018 11.3679 38.7785 12.0777 39.6826 12.8695C40.139 13.2693 40.5408 13.5111 41.1466 13.2906C41.7905 13.0563 42.4022 13.4259 43.0364 13.4349C43.9049 13.4473 44.6998 13.7384 45.521 13.9984C46.2247 14.2211 46.8304 14.4672 47.3032 15.0386C47.3861 15.1388 47.6249 15.1791 47.77 15.1476C48.4697 14.9959 49.1701 15.0539 49.8731 15.0758C50.4291 15.0931 50.9533 15.1957 51.4892 15.3694C52.66 15.7489 53.7591 16.2255 54.8024 16.9003C55.2353 17.1802 55.9246 17.0546 56.494 17.1362C57.3329 17.2567 58.2294 17.0665 58.9951 17.5887C60.6379 17.7448 61.5466 19.0947 62.7841 19.9102C63.2038 20.1869 63.6346 20.4476 64.0437 20.7388C64.3147 20.9317 64.7168 21.0061 64.7419 21.4625C64.7445 21.51 64.963 21.8357 65.1802 21.4974C65.3047 21.3031 65.557 21.1879 65.7586 21.0466C65.9158 20.9364 66.1279 20.8649 65.9945 20.6031C65.9815 20.5777 65.9763 20.5458 65.9761 20.5169C65.973 20.071 66.2743 19.3868 66.4296 19.4637C66.8193 19.6562 67.1738 19.9224 67.5304 20.1759C67.5835 20.2137 67.5687 20.3434 67.5902 20.4294C67.964 21.9262 68.3503 23.42 68.7031 24.9217C68.7783 25.2416 68.7555 25.5912 68.7364 25.9249C68.7125 26.3428 68.4899 26.588 68.0526 26.6737C67.0181 26.8764 66.0047 26.8615 64.976 26.5997C64.3169 26.4319 63.6265 26.3859 62.9495 26.2889C62.7598 26.2617 62.5576 26.2789 62.3792 26.2203C61.9632 26.0838 61.8323 25.5672 62.1181 25.2347C62.7259 24.5275 63.3416 23.8272 63.9481 23.1191C64.1425 22.8921 64.2014 22.6268 63.9107 22.4505C62.5508 21.625 61.5521 20.347 60.1721 19.5365C59.075 18.8921 57.8896 18.7186 56.6682 18.6253C56.5983 18.62 56.5059 18.7132 56.4525 18.7826C56.4302 18.8114 56.4638 18.9285 56.5041 18.9532C56.9323 19.2143 57.1538 19.5897 57.3817 20.0482C57.9547 21.2003 57.6221 22.3233 57.4117 23.4355C57.3224 23.9073 56.8587 24.231 56.3476 24.4619C55.539 24.8272 54.7071 25.0355 53.8443 25.0004C52.3546 24.9394 51.4843 23.9784 50.842 22.7502C50.7654 22.6039 50.6868 22.4584 50.617 22.3089C50.4644 21.9821 50.3523 21.9613 50.0977 22.2696C49.3007 23.2347 48.1085 23.4578 46.9754 22.9361C46.65 22.7863 46.2888 22.7138 45.9635 22.5638C45.0294 22.1331 44.6463 21.2178 44.2011 20.4003C43.7521 19.5758 43.5408 18.6677 43.5865 17.6897C43.6088 17.2148 43.7994 16.8624 44.1129 16.6759C44.5829 16.3961 44.9918 15.9398 45.6201 15.9606C45.7203 15.9639 45.8251 15.8264 45.9277 15.7539C45.8358 15.6429 45.7653 15.4722 45.6485 15.4304C44.6361 15.0669 43.5973 14.8178 42.5128 14.8134C42.426 14.8131 42.3384 14.8657 42.2522 14.8628C41.3664 14.8334 41.3777 14.8267 41.7274 15.6465C41.9045 16.0615 42.0461 16.4933 42.1789 16.9253C42.4068 17.6666 42.6442 18.4068 42.8243 19.1604C43.0365 20.0478 42.4209 21.0852 41.537 21.3524C40.0996 21.7871 38.7228 21.6444 37.4804 20.7708C36.7415 20.2511 36.1672 19.5223 35.9183 18.6803C35.7126 17.9846 35.7916 17.1991 35.7888 16.4533C35.7881 16.2472 35.9151 16.0202 36.0361 15.8378C36.5742 15.0272 37.2362 14.3629 38.2083 14.0763C38.3592 14.0318 38.505 13.923 38.6158 13.8079C38.6831 13.7379 38.7354 13.5328 38.698 13.5008C37.5933 12.5551 36.4909 11.5947 34.8866 11.6985C34.5224 11.722 34.1553 11.7125 33.7933 11.7529C33.4073 11.7961 33.4728 11.9346 33.6942 12.1796C34.3783 12.9368 34.7727 13.853 34.8372 14.8584C34.8895 15.6738 34.839 16.4587 34.1666 17.1542C33.7033 17.6335 33.2335 17.9508 32.629 17.9454C32.1516 17.9412 31.6382 17.7868 31.2074 17.5683C30.0345 16.9732 29.3097 15.9797 29.0324 14.705C28.9106 14.1473 28.8311 13.5812 28.7946 13.0114C28.7172 11.7906 29.4369 11.3072 30.3104 10.8512C30.4111 10.7986 30.5873 10.8307 30.64 10.7589C30.7598 10.5957 31.0194 10.4237 30.6739 10.1922C29.583 9.46114 28.377 9.0322 27.0938 8.81315C26.8162 8.76574 26.6502 8.91998 26.7819 9.24414C27.0451 9.89263 27.2857 10.5504 27.5591 11.1945C27.8909 11.9762 27.513 13.2377 26.7788 13.7013C26.4478 13.9103 26.099 13.8779 25.7193 13.814C24.8547 13.6683 24.0084 13.505 23.3671 12.8429C22.106 11.5408 22.3097 9.49219 23.75 8.4137C24.6721 7.72326 24.3011 7.48266 23.7654 6.88985C23.5985 6.70668 23.4339 6.52151 23.2715 6.33437C22.5438 5.48957 21.646 5.11329 20.5208 5.28222C20.1738 5.33421 20.087 5.53686 20.2574 5.74484C20.8905 6.51781 20.5524 7.44694 20.7097 8.29244C20.8051 8.80533 20.7689 9.3493 20.7422 9.87691C20.6924 10.8681 19.765 11.3394 18.8972 10.9248C18.134 10.5603 17.4373 10.1046 16.7386 9.64424C15.5177 8.83984 15.1816 7.15643 15.9846 5.91168C16.1285 5.68845 16.2753 5.46692 16.5076 5.2265ZM39.0052 15.1841C38.6736 15.3745 38.3216 15.5365 38.0145 15.7601C36.9515 16.5339 36.8445 17.4756 37.4251 18.6751C37.8637 19.5816 38.708 19.7518 39.4375 20.1829C39.8668 20.4366 40.3065 20.3639 40.7291 20.4144C41.2658 20.4785 41.9479 19.5023 41.718 19.0721C41.1859 18.0759 40.8559 17.007 40.5256 15.9371C40.257 15.067 40.0905 14.9627 39.0052 15.1841ZM52.7953 22.9818C53.2888 23.5416 53.9627 23.6868 54.6468 23.6662C55.5256 23.6397 56.3917 23.1145 56.4323 22.5952C56.4923 21.8275 56.6348 21.0981 56.18 20.3289C55.8435 19.7598 55.3444 19.3826 54.9681 18.8772C54.6825 18.4941 54.2452 18.6312 53.8661 18.8257C53.7445 18.8881 53.6339 18.9756 53.5078 19.0251C52.2949 19.5012 51.64 20.7524 52.1254 21.9149C52.2716 22.2653 52.4996 22.5814 52.7953 22.9818ZM45.2778 19.5758C45.462 19.8776 45.6755 20.1657 45.8244 20.484C46.1359 21.1501 46.6147 21.5753 47.322 21.8218C48.5887 22.2632 49.7183 21.5444 49.5987 20.3016C49.4581 18.8416 48.7516 17.7002 47.5472 16.8747C47.4048 16.7771 47.1633 16.7427 46.9934 16.7841C46.701 16.8555 46.4345 17.0264 46.1468 17.1254C45.397 17.3835 44.945 17.8417 44.9559 18.4886C44.9611 18.7947 45.1409 19.0978 45.2778 19.5758ZM12.5571 5.42077C12.1266 4.13572 11.2226 3.42334 9.89235 3.23656C9.6871 3.20775 9.52684 3.12754 9.40221 3.49217C9.21325 4.04484 9.14259 4.55179 9.21528 5.12989C9.31237 5.90169 9.76935 6.45712 10.1776 7.05454C10.9194 8.13999 11.498 8.37673 12.6918 8.20052C13.0548 8.14707 13.2041 7.99805 13.2106 7.57199C13.2221 6.81053 12.9627 6.15187 12.5571 5.42077ZM31.0715 11.9561C30.4776 12.209 29.9879 12.5587 30.0523 13.2929C30.114 13.996 30.1433 14.7206 30.6654 15.2856C31.0197 15.6688 31.3344 16.1097 31.7504 16.409C32.1285 16.6812 32.6056 16.7904 33.1126 16.6106C33.5731 16.4473 33.5163 16.0609 33.5804 15.7239C33.6221 15.5088 33.6372 15.2894 33.6253 15.0706C33.5746 14.2275 33.2363 13.4593 32.7625 12.8039C32.4252 12.337 32.117 11.5736 31.0715 11.9561ZM19.7311 9.35161C19.5952 8.41528 19.4841 7.47442 19.3162 6.54387C19.1561 5.65578 18.9638 5.54543 18.1179 5.79827C16.8698 6.1714 16.4398 7.38887 17.2243 8.39536C17.7011 9.00697 18.617 9.28051 19.3486 9.68252C19.397 9.70909 19.5552 9.53662 19.7311 9.35161ZM66.9362 23.3683L66.6037 22.4416C66.3246 22.6593 66.0454 22.8772 65.7656 23.0943C65.7227 23.1276 65.6683 23.1499 65.634 23.1899C65.0845 23.8325 64.5307 24.4717 64.0007 25.1299C63.9483 25.1951 64.0446 25.4926 64.072 25.4927C65.0447 25.4928 66.0205 25.6499 66.9906 25.4437C67.3281 25.372 67.5226 25.2187 67.4267 24.8503C67.3039 24.3778 67.1702 23.9079 66.9362 23.3683ZM49.4685 17.0665C49.6033 17.2045 49.8166 17.3217 49.8591 17.4839C50.0202 18.0965 50.7519 18.5099 50.4868 19.2747C50.4694 19.3246 50.6141 19.4878 50.6972 19.4993C50.7818 19.5109 50.9186 19.4227 50.9721 19.3394C51.3314 18.7804 51.6708 18.2235 52.4406 18.1508C52.6386 18.1321 52.8373 17.9692 53.0067 17.836C53.298 17.6068 53.2387 17.32 52.8782 17.1682C52.4443 16.9856 52.0194 16.7423 51.5656 16.6559C50.872 16.5238 50.1579 16.4906 49.4505 16.4472C49.3106 16.4386 49.1616 16.5741 49.017 16.6431C49.1597 16.7923 49.3104 16.9337 49.4685 17.0665ZM24.1928 9.86548C24.0924 10.0953 23.9036 10.328 23.9112 10.5541C23.9248 10.9637 23.9177 11.5347 24.1666 11.7415C24.6493 12.1425 25.2877 12.38 25.8919 12.6034C26.3 12.7544 26.5716 12.4851 26.4507 12.0465C26.2569 11.3438 26.0268 10.642 25.7179 9.98405C25.5656 9.65966 25.7025 9.01549 25.1493 9.06996C24.8339 9.10097 24.5562 9.51754 24.1928 9.86548ZM66.0832 21.4636C66.0803 21.594 66.0691 21.7249 66.0792 21.8542C66.0825 21.896 66.1414 21.9334 66.1749 21.9729C66.1965 21.9078 66.235 21.8427 66.2355 21.7773C66.2361 21.6958 66.2054 21.6139 66.0832 21.4636ZM34.2403 15.8209L34.2881 15.7022C34.2371 15.7189 34.1862 15.7356 34.2403 15.8209Z" fill="white"/>
</svg>
