<svg width="75" height="124" fill="none" xmlns="http://www.w3.org/2000/svg"><path d="M12.244 92.926a26.995 26.995 0 0 0-.747-2.321c-.32-.852-.795-1.05-1.665-.698-2.045.83-3.28 2.4-3.878 4.465-.426 1.47-.757 2.97-1.04 4.474-.086.452.128.962.205 1.445.469-.137.987-.188 1.398-.425 2.841-1.638 5.89-2.342 9.142-2.014 1.743.176 3.109 1.716 3.216 3.689.121 2.218-.783 4.042-2.553 5.418-.317.247-.565.586-.888.825-2.152 1.594-4.616 2.157-7.226 1.922-.815-.073-1.67-.534-2.352-1.03-.692-.503-1.071-.294-1.303.308-.888 2.312-1.527 4.648-.836 7.175.292 1.068.455 2.21.434 3.314-.022 1.126.516 1.645 1.42 2.035.268.115.616.316.687.55.114.373.097.824.005 1.21-.112.47-1.4.785-1.93.522-.932-.465-1.573-1.092-1.937-2.167a19.896 19.896 0 0 1-1.021-5.013c-.052-.716-.266-1.419-.332-2.136-.223-2.448.42-4.763 1.108-7.074.174-.581.443-1.315.237-1.791-.539-1.247-.17-2.498-.3-3.734-.017-.173-.074-.403.009-.518 1.348-1.852.51-4.058.956-6.078.581-2.63 1.447-4.866 3.837-6.283.795-.47 1.57-1.009 2.42-1.344 1.345-.53 1.875-1.544 1.864-2.86-.011-1.267.517-2.358.962-3.466.212-.526.661-1.048 1.141-1.355 1.883-1.204 3.775-2.413 5.762-3.425.769-.392 1.036-.95 1.242-1.594.414-1.296.704-2.63 1.081-3.938a2.13 2.13 0 0 1 .488-.844c1.246-1.313 2.61-2.528 3.742-3.931.577-.716 1.281-1.054 1.987-1.518 1.11-.73 1.035-2.123 1.466-3.228.614-1.573.377-3.395 1.397-4.858.186-.267.274-.631.508-.834 1.8-1.554 3.568-3.154 5.465-4.581.958-.72 1.588-1.399 1.408-2.66-.192-1.34.77-2.372 1.045-3.595.376-1.674 1.26-3.092 2.096-4.575.716-1.27 1.438-2.341 2.734-3.023.227-.12.402-.565.4-.859-.01-1.414.386-2.744.714-4.095.259-1.067.67-2.04 1.222-3.005 1.209-2.11 2.576-4.041 4.303-5.785.717-.723.753-2.107 1.142-3.175.573-1.572.569-3.383 1.889-4.651.967-3.113 3.946-4.323 6.024-6.384.705-.7 1.384-1.427 2.112-2.1.483-.446.79-1.193 1.683-1.056.093.014.81-.276.245-.833-.325-.32-.446-.854-.637-1.301-.15-.349-.202-.788-.762-.636a.39.39 0 0 1-.174 0c-.864-.174-2.064-1.034-1.853-1.303.53-.676 1.189-1.253 1.824-1.84.094-.087.339-.006.514-.013 3.045-.115 6.09-.257 9.136-.33.65-.016 1.316.17 1.953.342.798.216 1.182.746 1.17 1.626-.027 2.082-.467 4.035-1.39 5.918-.591 1.206-.96 2.522-1.422 3.792-.13.355-.178.753-.364 1.074-.433.75-1.484.793-2.011.106-1.121-1.462-2.225-2.936-3.349-4.396-.36-.468-.849-.69-1.307-.199-2.148 2.295-5.023 3.707-7.15 6.047-1.69 1.86-2.506 4.08-3.181 6.404-.04.133.104.35.216.481.047.055.287.037.35-.03.68-.722 1.495-.998 2.474-1.253 2.46-.64 4.495.457 6.56 1.315.876.364 1.314 1.392 1.553 2.473.379 1.712.444 3.404.027 5.058-.722 2.855-2.933 4.148-5.568 4.892-.314.089-.627.182-.944.256-.694.163-.78.371-.287.988 1.543 1.932 1.491 4.328.023 6.307-.422.568-.708 1.237-1.13 1.805-1.211 1.632-3.136 2.001-4.897 2.53-1.776.534-3.617.575-5.49.09-.909-.236-1.513-.747-1.746-1.429-.35-1.022-1.067-1.998-.772-3.204.047-.192-.176-.45-.275-.678-.252.133-.61.2-.739.408-1.113 1.81-2.015 3.718-2.463 5.813-.036.167.03.358-.01.523-.417 1.701-.425 1.676 1.302 1.333.874-.175 1.766-.273 2.655-.355 1.526-.14 3.053-.299 4.583-.341 1.802-.051 3.557 1.56 3.716 3.377.257 2.955-.577 5.559-2.77 7.607-1.303 1.218-2.945 2.032-4.674 2.172-1.428.116-2.915-.355-4.358-.652-.399-.083-.786-.42-1.09-.728-1.349-1.369-2.365-2.918-2.524-4.913-.025-.31-.177-.636-.354-.897-.108-.159-.484-.343-.56-.283-2.277 1.752-4.58 3.494-5.03 6.637-.102.714-.27 1.42-.338 2.136-.073.764.221.693.785.365 1.74-1.016 3.672-1.407 5.642-1.124 1.598.23 3.094.645 4.166 2.227.74 1.09 1.162 2.127.907 3.293-.202.922-.709 1.852-1.306 2.596-1.626 2.026-3.84 3.025-6.417 3.044a22.359 22.359 0 0 1-3.37-.227c-2.392-.345-3.035-1.933-3.562-3.806-.061-.216.072-.543-.045-.675-.267-.297-.494-.869-1.082-.295-1.856 1.813-3.174 3.97-4.117 6.362-.205.518.026.901.706.778 1.36-.246 2.73-.444 4.086-.712 1.646-.324 3.931.918 4.53 2.525.27.725.066 1.386-.212 2.094-.632 1.612-1.29 3.182-2.83 4.154-3.03 1.91-6.907.686-8.408-2.536-.961-2.063-1.577-1.443-2.94-.647-.422.248-.847.491-1.274.73-1.928 1.063-3.02 2.647-3.15 4.89-.04.693.317.942.788.697 1.751-.91 3.41.12 5.109.159 1.03.023 2.067.314 3.076.579 1.896.498 2.431 2.482 1.278 3.992-1.014 1.328-2.177 2.49-3.35 3.654-2.05 2.034-5.442 2.002-7.522-.055-.374-.37-.742-.743-1.113-1.29Zm28.371-39.458c.234.718.404 1.464.712 2.149 1.065 2.369 2.842 2.957 5.397 2.321 1.93-.48 2.601-2.044 3.73-3.28.665-.727.703-1.606.972-2.403.341-1.011-1.27-2.726-2.195-2.456-2.141.625-4.341.83-6.544 1.035-1.79.166-2.06.446-2.072 2.634ZM61.281 29.97c1.282-.727 1.836-1.971 2.074-3.302.305-1.71-.36-3.597-1.347-3.886-1.46-.427-2.813-.998-4.484-.431-1.236.42-2.168 1.232-3.298 1.754-.856.397-.768 1.298-.546 2.11.071.26.196.51.24.774.429 2.537 2.582 4.31 5.027 3.843.736-.14 1.44-.453 2.334-.862Zm-9.632 13.153c.658-.234 1.301-.53 1.977-.689 1.414-.332 2.43-1.086 3.193-2.353 1.367-2.27.435-4.745-2.016-5.018-2.88-.32-5.372.583-7.456 2.577-.247.236-.411.689-.4 1.034.02.594.242 1.179.316 1.775.196 1.554.898 2.614 2.153 2.855.594.114 1.253-.11 2.233-.181Zm-40.631 57.52c-2.659.311-4.403 1.77-5.303 4.266-.139.385-.359.662.296 1.051.991.59 1.943.932 3.09 1.026 1.531.125 2.79-.534 4.111-1.081 2.4-.994 3.091-2.016 3.235-4.396.044-.723-.184-1.072-1.005-1.258-1.468-.33-2.846-.096-4.424.392Zm20.14-33.144c.248 1.25.726 2.339 2.172 2.512 1.384.165 2.797.403 4.1-.378.885-.53 1.865-.959 2.612-1.642.68-.62 1.084-1.499.942-2.552-.129-.956-.899-1.003-1.524-1.263a5.271 5.271 0 0 0-1.245-.352c-1.65-.244-3.273.099-4.732.749-1.04.463-2.64.75-2.325 2.925Zm-9.632 20.868c-1.866-.117-3.73-.284-5.597-.336-1.781-.05-2.073.276-1.927 2.014.216 2.564 2.395 3.89 4.659 2.78 1.375-.673 2.276-2.333 3.35-3.584.07-.083-.199-.46-.485-.874ZM67.76 2.787l-1.927.267c.308.628.616 1.256.922 1.885.047.097.068.21.132.293 1.02 1.323 2.03 2.653 3.088 3.944.105.128.72.063.73.01.395-1.88 1.094-3.704 1.089-5.663-.002-.681-.22-1.12-.97-1.083-.964.046-1.926.114-3.064.347ZM48.496 34.002c.322-.204.635-.569.965-.586 1.25-.062 2.346-1.31 3.717-.487.09.054.464-.16.52-.316.056-.158-.059-.459-.198-.596-.935-.921-1.874-1.803-1.703-3.32.044-.391-.19-.841-.379-1.223-.325-.656-.903-.658-1.343-.022-.529.765-1.172 1.488-1.523 2.33-.536 1.287-.89 2.654-1.26 4.004-.074.267.128.61.203.918.346-.216.68-.45 1.001-.702ZM24.328 79.948c.404.288.777.747 1.217.824.797.14 1.898.385 2.4-.012.97-.771 1.688-1.909 2.365-2.987.457-.727.047-1.361-.85-1.305-1.437.09-2.887.25-4.285.58-.688.163-1.878-.363-1.997.729-.068.622.625 1.328 1.15 2.171ZM63.733 3.664c.25.059.499.133.753.166.082.01.178-.088.268-.137-.117-.068-.227-.169-.353-.196-.158-.034-.328-.008-.668.167ZM39.915 62.938l-.21-.14c.011.105.023.21.21.14Z" fill="#fff"/></svg>