<svg width="12" height="32" fill="none" xmlns="http://www.w3.org/2000/svg"><path d="M8.202 1.124a.86.86 0 0 1 .223-.112C9.66.648 9.68.65 9.535 2.062c-.172 1.672-.341 3.346-.587 5.007-.182 1.23-.51 2.436-.726 3.662-.136.779-.173 1.576-.275 2.362-.283 2.18-.577 4.357-.864 6.536-.1.758-.199 1.518-.285 2.279-.016.137.033.283.052.425.133-.078.279-.14.398-.236 1.112-.899 2.201-1.83 3.344-2.684.238-.177.734-.205.998-.068.374.194.561.626.261 1.09-.417.646-.758 1.366-1.265 1.926-2.422 2.677-4.892 5.308-7.339 7.961-.39.424-.74.887-1.132 1.31-.098.105-.34.215-.415.163-.127-.087-.223-.293-.247-.462-.3-2.152-.582-4.306-.876-6.46-.186-1.369-.386-2.737-.572-4.106a.706.706 0 0 1 .053-.35c.214-.509.431-1.017.67-1.513.082-.169.23-.303.347-.452.123.165.287.313.364.5.351.85.67 1.713 1.02 2.563.079.192.2.44.36.502.178.069.463.196.523-.299.298-2.463.63-4.922 1.002-7.375.35-2.318.757-4.626 1.15-6.937.23-1.35.428-2.71.737-4.04.247-1.063.875-1.864 1.971-2.242Zm-.975 11.082c.096-.582.196-1.163.284-1.747.013-.085-.037-.18-.058-.271-.027.03-.05.068-.083.092-.353.26-.68.665-1.067.741-.571.113-.685.527-.796.933-.154.565-.213 1.159-.3 1.742-.016.114-.003.323.043.339a.515.515 0 0 0 .38-.03c.278-.155.515-.416.805-.507.573-.18.828-.536.792-1.292ZM6.07 14.76c-.385.296-.853.528-1.13.91-.224.307-.24.792-.306 1.206-.033.208.03.432.049.65.181-.079.37-.143.542-.24.178-.1.332-.25.513-.343.719-.37 1.39-.748 1.212-1.792-.049-.283.052-.593.085-.89-.297.141-.595.283-.965.5ZM7.371 9.2c.29-.621.583-1.24.863-1.866.06-.133.069-.291.1-.438-.163.054-.345.076-.486.167-.232.15-.414.421-.66.506-.907.312-1.142 1.12-1.388 1.923-.045.149.01.332.019.499.163-.046.34-.065.488-.143.338-.175.662-.38 1.064-.648Zm-2.24 11.346c-.265.175-.614.293-.773.541-.186.29-.206.695-.299 1.05.24-.08.48-.153.717-.24.25-.093.492-.21.743-.297.44-.155 1.048-1.145.81-1.43-.385-.457-.647.248-1.012.229-.037-.002-.076.046-.186.147ZM6.72 5.669c-.12.273-.267.538-.351.823-.044.15.02.333.035.502.133-.07.273-.129.398-.212.325-.215.619-.5.968-.65.708-.304.628-.974.742-1.557.005-.026-.254-.172-.301-.136-.484.37-.949.766-1.491 1.23Zm.361-2.48c-.048.23-.098.458-.144.687-.03.143-.054.288-.08.433.164-.065.362-.09.485-.203.357-.33.737-.66 1.006-1.062.193-.29.231-.695.313-1.055.013-.059-.11-.214-.172-.216-.389-.012-1.307.83-1.408 1.417ZM5.854 18.743c.505-.118.802-.42.792-.984-.002-.117-.035-.234-.054-.351-.099.042-.204.073-.296.127-.45.262-.886.555-1.349.788-.484.245-.657.632-.608 1.157.01.107.064.21.097.315.097-.06.198-.113.29-.18.353-.264.704-.53 1.128-.872ZM4.264 23.1c.05.15.072.412.152.433.567.15 1.528-.371 1.756-.922.029-.068.018-.197-.027-.244-.05-.053-.177-.089-.241-.06-.527.23-1.046.476-1.64.793Zm1.662 3.682c.066-.07.152-.127.194-.209.09-.177.156-.366.232-.55-.148.11-.328.194-.437.336-.099.129-.553.272.01.423Zm-3.18-3.306c.097-.076.24-.135.273-.234.023-.07-.105-.193-.166-.292-.035.125-.071.25-.107.526Z" fill="#fff"/></svg>