<svg width="20" height="20" fill="none" xmlns="http://www.w3.org/2000/svg"><path fill-rule="evenodd" clip-rule="evenodd" d="M2.774 10c2.02 3.139 4.315 5.25 7.226 5.25 2.911 0 5.206-2.111 7.226-5.25C15.206 6.86 12.91 4.75 10 4.75 7.089 4.75 4.794 6.86 2.774 10ZM1.59 9.69C3.687 6.334 6.339 3.584 10 3.584c3.661 0 6.313 2.75 8.411 6.108.119.189.119.429 0 .618-2.098 3.358-4.75 6.108-8.411 6.108-3.661 0-6.313-2.75-8.411-6.108a.583.583 0 0 1 0-.618Z" fill="#17266E"/><path fill-rule="evenodd" clip-rule="evenodd" d="M10 8.083a1.917 1.917 0 1 0 0 3.833 1.917 1.917 0 0 0 0-3.833ZM6.917 10a3.083 3.083 0 1 1 6.167 0 3.083 3.083 0 0 1-6.167 0Z" fill="#17266E"/></svg>