<svg width="75" height="101" fill="none" xmlns="http://www.w3.org/2000/svg"><g filter="url(#a)"><path fill-rule="evenodd" clip-rule="evenodd" d="M66.403 5.36a1.556 1.556 0 0 0-2.43-1.905L3.455 63.973a1.556 1.556 0 0 0-.151 2.023c-.182.735.195 1.511.916 1.809a48.577 48.577 0 0 0 4.65 1.638L7.603 70.71a1.556 1.556 0 0 0-.151 2.024c-.182.734.195 1.51.915 1.809 3.803 1.573 7.778 2.553 11.703 3.387 1.159.246 2.307.479 3.446.71 2.762.56 5.471 1.108 8.144 1.815l1.545.41c3.093.82 6.216 1.65 9.363 2.367.255.058.536.192.979.441l.163.093c.377.215.89.507 1.434.706.65.239 1.294.514 1.978.81l.115.05c.638.277 1.315.57 2.009.833 1.002.38 1.994.788 3.011 1.207l.269.11c1.103.454 2.234.917 3.389 1.339 2.968 1.085 5.81 2.735 8.118 4.865l.098.09c.532.492 1.16 1.072 1.739 1.677.637.667 1.099 1.249 1.311 1.674a1.555 1.555 0 0 0 2.315.555 1.555 1.555 0 0 0 1.927-1.51V13.497c0-.614-.356-1.145-.872-1.398a1.556 1.556 0 0 0-2.43-1.905l-.845.844v-4.28c0-.614-.356-1.145-.872-1.398Zm1.909 88.151V14.4l-1.037 1.037v73.998c0 .859-.696 1.555-1.555 1.555h-.038c.155.135.308.273.46.412l.108.1c.523.483 1.219 1.124 1.868 1.804l.194.206Zm-7.96-6.13-.369-.342-.098-.09c-2.309-2.131-5.15-3.78-8.118-4.866a91.01 91.01 0 0 1-3.389-1.338l-.269-.11c-1.017-.42-2.009-.828-3.01-1.207-.695-.263-1.372-.556-2.01-.833l-.115-.05a36.961 36.961 0 0 0-1.978-.81c-.544-.2-1.057-.492-1.434-.707l-.163-.093c-.443-.249-.723-.382-.979-.44-3.147-.718-6.27-1.547-9.362-2.368l-1.546-.41c-2.673-.706-5.381-1.255-8.144-1.815-1.139-.23-2.287-.463-3.446-.71a119.914 119.914 0 0 1-3.588-.814l-1.714 1.714c3.218 1.225 6.605 2.055 10.096 2.797 1.094.233 2.205.458 3.323.684 2.8.568 5.649 1.145 8.415 1.876l1.556.413h.002c3.094.821 6.158 1.634 9.247 2.339.735.168 1.36.508 1.812.763l.203.114c.394.223.656.371.938.474a39.91 39.91 0 0 1 2.146.878l.097.042c.654.284 1.267.55 1.89.785 1.047.397 2.08.822 3.09 1.238l.274.113c1.104.454 2.183.894 3.272 1.293 1.142.417 2.272.91 3.37 1.48Zm3.813-73.233V7.661L6.473 65.353c1.6.61 3.24 1.12 4.916 1.572l52.776-52.777ZM14.921 67.79c.547.123 1.096.243 1.648.36 1.094.233 2.204.458 3.323.684 2.8.568 5.65 1.145 8.415 1.877l1.537.407.012.003.006.002h.002c3.095.822 6.159 1.635 9.248 2.34.735.167 1.36.507 1.812.762l.154.087.049.027c.394.224.656.372.938.475.747.273 1.468.584 2.146.878l.097.042c.654.283 1.268.55 1.89.785 1.047.396 2.08.822 3.09 1.237l.274.113a88.25 88.25 0 0 0 3.273 1.293c3.306 1.21 6.514 3.06 9.16 5.502l.108.1c.523.482 1.219 1.124 1.868 1.803.064.067.13.136.194.206V18.547L14.921 67.79Z" fill="#fff"/></g><defs><filter id="a" x="0" y="0" width="74.422" height="100.988" filterUnits="userSpaceOnUse" color-interpolation-filters="sRGB"><feFlood flood-opacity="0" result="BackgroundImageFix"/><feBlend in="SourceGraphic" in2="BackgroundImageFix" result="shape"/><feGaussianBlur stdDeviation="1.5" result="effect1_foregroundBlur_60_2437"/></filter></defs></svg>