<svg width="28" height="16" fill="none" xmlns="http://www.w3.org/2000/svg"><path d="M27.033 14.04a.818.818 0 0 1 .048.232c.03 1.22.023 1.237-1.235.758-1.489-.567-2.98-1.133-4.44-1.766-1.082-.468-2.106-1.065-3.176-1.562-.68-.316-1.401-.546-2.096-.832-1.926-.794-3.848-1.598-5.773-2.395-.67-.278-1.342-.555-2.017-.82-.122-.049-.268-.04-.402-.057.038.141.06.29.118.422.55 1.24 1.136 2.465 1.637 3.721.104.262.008.723-.182.931-.27.295-.71.36-1.062-.028-.49-.54-1.066-1.03-1.454-1.631C5.142 8.137 3.34 5.23 1.51 2.338 1.217 1.877.88 1.442.59.98.514.864.473.615.538.56.652.463.864.426 1.025.446 3.068.7 5.11.97 7.154 1.23c1.3.165 2.602.317 3.902.483a.668.668 0 0 1 .307.135c.413.32.825.645 1.221.985.134.116.22.284.33.428-.183.073-.358.186-.548.211-.864.113-1.734.194-2.598.305-.195.025-.451.076-.547.207-.107.146-.294.376.144.552 2.183.878 4.354 1.786 6.508 2.727 2.037.89 4.051 1.83 6.071 2.756 1.18.542 2.376 1.057 3.52 1.666.912.487 1.492 1.259 1.569 2.355Zm-9.91-3.612c.51.23 1.017.465 1.53.689.075.032.175.01.263.014-.022-.033-.05-.063-.064-.099-.152-.387-.442-.786-.417-1.16.037-.55-.315-.756-.659-.957-.48-.28-1.009-.48-1.522-.702-.1-.043-.295-.083-.32-.044a.489.489 0 0 0-.066.356c.073.291.254.573.266.861.025.568.288.89.99 1.042Zm-2.055-1.686c-.177-.426-.274-.91-.555-1.258-.227-.281-.668-.415-1.03-.576-.183-.082-.404-.08-.607-.115.027.185.04.374.086.555.047.188.148.365.189.554.161.75.343 1.457 1.343 1.55.27.025.53.193.795.296a11.096 11.096 0 0 0-.221-1.006Zm4.772 2.555c.498.418.993.839 1.498 1.25.107.086.25.133.376.198-.009-.162.016-.334-.033-.486-.08-.25-.285-.482-.302-.728-.063-.908-.745-1.321-1.42-1.743-.126-.079-.306-.073-.462-.106.002.16-.023.327.011.482.078.352.186.7.332 1.133ZM10 6.462c-.095-.286-.117-.634-.306-.841-.22-.241-.585-.36-.888-.53.014.238.022.477.044.714.024.252.07.502.09.754.033.44.791 1.24 1.11 1.092.513-.24-.068-.652.039-.983.01-.033-.024-.08-.089-.206Zm13.234 5.106c-.221-.177-.428-.376-.668-.523-.126-.077-.31-.063-.468-.09.031.138.05.28.096.416.118.35.306.69.358 1.045.105.723.738.815 1.244 1.062.022.011.22-.19.198-.242a33.723 33.723 0 0 0-.76-1.668Zm2.182.94c-.198-.1-.395-.202-.593-.3-.125-.063-.252-.12-.377-.18.019.166-.008.354.066.493.216.41.423.838.727 1.183.217.247.58.382.889.545.05.026.223-.047.24-.104.106-.353-.44-1.401-.952-1.637ZM11.474 7.566c-.016.492.189.839.707.968.108.026.223.025.335.037-.014-.101-.017-.205-.044-.303-.129-.477-.29-.947-.39-1.429-.106-.503-.418-.756-.91-.84-.101-.017-.209.007-.313.011.03.104.055.21.095.31.153.388.312.774.52 1.246Zm-3.6-2.525c-.15.009-.395-.035-.434.034-.276.482-.035 1.49.413 1.834.056.043.176.064.23.035.062-.034.125-.14.115-.206a21.462 21.462 0 0 0-.324-1.697Zm-3.78.619c.047.077.079.17.144.229.14.125.296.233.446.348-.063-.163-.097-.348-.2-.483-.094-.123-.114-.573-.39-.094Zm3.808-2.1c.046.106.065.252.147.307.058.038.202-.05.308-.08a2.92 2.92 0 0 0-.455-.228Z" fill="#fff"/></svg>