<svg width="13" height="13" fill="none" xmlns="http://www.w3.org/2000/svg"><g clip-path="url(#a)"><path d="M10.644 3.16a5.21 5.21 0 0 0-3.718-1.535c-2.896 0-5.256 2.349-5.259 5.232 0 .924.243 1.822.701 2.618l-.743 2.713 2.788-.728a5.28 5.28 0 0 0 2.513.637h.003c2.896 0 5.256-2.349 5.258-5.235a5.192 5.192 0 0 0-1.543-3.701Zm-3.718 8.051c-.783 0-1.552-.21-2.225-.607l-.16-.095-1.653.431.441-1.606-.103-.165a4.316 4.316 0 0 1-.668-2.314c0-2.394 1.96-4.347 4.37-4.347a4.367 4.367 0 0 1 4.04 2.686c.219.528.331 1.094.33 1.665-.003 2.403-1.964 4.352-4.372 4.352Zm2.397-3.257c-.13-.065-.775-.382-.897-.427-.12-.042-.209-.065-.295.066-.088.13-.34.426-.416.511-.075.088-.154.098-.285.033-.13-.066-.554-.203-1.056-.65a3.994 3.994 0 0 1-.731-.906c-.076-.13-.007-.2.058-.266.058-.058.131-.153.197-.228.066-.075.088-.13.13-.218.044-.088.023-.164-.009-.229-.033-.065-.295-.71-.406-.97-.106-.257-.214-.221-.295-.225-.076-.004-.164-.004-.252-.004a.485.485 0 0 0-.35.163c-.121.13-.459.447-.459 1.092s.47 1.264.537 1.352c.065.088.925 1.408 2.244 1.975.311.136.557.216.748.276.315.1.6.085.827.053.252-.038.776-.317.887-.622.109-.307.109-.568.075-.623-.032-.055-.12-.088-.252-.153Z" fill="#fff"/></g><defs><clipPath id="a"><path fill="#fff" d="M0 0h13v13H0z"/></clipPath></defs></svg>