<svg width="12" height="11" fill="none" xmlns="http://www.w3.org/2000/svg"><path fill-rule="evenodd" clip-rule="evenodd" d="M3.272.033C3.858.006 4.045 0 5.537 0c1.493 0 1.68.006 2.265.033.585.026.985.12 1.335.255.366.139.698.355.973.635.28.275.495.607.633.974.136.35.229.75.256 1.335.027.587.033.774.033 2.268 0 1.494-.007 1.681-.033 2.268-.027.584-.12.984-.256 1.334-.138.368-.354.7-.633.975-.275.28-.607.496-.973.634-.35.136-.75.229-1.334.256-.586.027-.773.033-2.266.033-1.492 0-1.679-.007-2.265-.033-.584-.027-.984-.12-1.333-.256a2.696 2.696 0 0 1-.974-.634 2.696 2.696 0 0 1-.634-.974c-.135-.35-.228-.75-.255-1.335C.049 7.181.043 6.994.043 5.5c0-1.494.006-1.681.033-2.267.026-.586.12-.986.255-1.336.138-.367.355-.7.635-.974.274-.28.606-.496.972-.635.35-.135.75-.228 1.334-.255Zm4.485.99C7.178.997 7.004.991 5.537.991s-1.64.006-2.22.032c-.536.025-.827.114-1.02.19-.257.1-.44.218-.632.41a1.706 1.706 0 0 0-.41.633c-.076.194-.166.485-.19 1.022-.027.58-.032.754-.032 2.222s.005 1.643.032 2.223c.024.536.114.827.19 1.021.087.239.227.455.41.633.177.182.393.322.632.41.193.076.484.165 1.02.19.58.027.753.032 2.22.032 1.468 0 1.641-.005 2.22-.032.536-.024.827-.114 1.02-.19.257-.1.44-.218.633-.41.182-.178.322-.395.41-.633.076-.194.165-.485.19-1.021.026-.58.032-.755.032-2.223s-.006-1.643-.032-2.223c-.025-.536-.114-.827-.19-1.021-.1-.256-.218-.44-.41-.632a1.705 1.705 0 0 0-.632-.412c-.194-.075-.485-.164-1.02-.189ZM4.835 7.196A1.83 1.83 0 0 0 7.363 5.32a1.835 1.835 0 0 0-3.35-.84 1.836 1.836 0 0 0 .822 2.715ZM3.54 3.5a2.824 2.824 0 0 1 4.606 3.08 2.827 2.827 0 0 1-2.609 1.746A2.823 2.823 0 0 1 2.713 5.5c0-.75.298-1.469.827-1.999Zm5.448-.407a.669.669 0 1 0-.918-.972.669.669 0 0 0 .918.972Z" fill="#fff"/></svg>