<svg width="30" height="35" fill="none" xmlns="http://www.w3.org/2000/svg"><path d="M13.245 13.282c2.162 2.005 4.267 3.957 6.304 5.977 1.866 1.852 3.644 3.794 5.493 5.664 1.087 1.1 2.24 2.133 3.358 3.202.225.215.445.44.635.687.387.504.441.886-.38.9-.107 0-.299.093-.306.16-.086.796-.813 1.546-.164 2.41.108.144-.006.456-.018.69-.243-.063-.497-.102-.726-.199-.176-.074-.319-.224-.48-.336-.106-.074-.22-.14-.33-.21-.05.136-.11.268-.148.406-.091.34-.061.805-.276 1-.872.79-1.468.541-1.756-.66-.261-1.09-.494-1.157-1.347-.417a4.349 4.349 0 0 1-.727.5c-.177.1-.386.138-.58.204.032-.27.063-.54.101-.808.003-.018.058-.025.074-.047.351-.47 1.04-1.01.964-1.393-.1-.502-.793-.893-1.252-1.309-1.58-1.43-3.201-2.817-4.748-4.283-2.84-2.692-5.643-5.422-8.446-8.15-.622-.606-1.122-.287-1.607.142-1.37 1.21-2.706 2.461-4.098 3.644-.307.26-.814.464-1.195.42-1.163-.138-1.108-.222-.902-1.384.18-1.01.143-2.056.233-3.084a6.9 6.9 0 0 1 .249-1.391c.38-1.255.616-2.49.359-3.825-.1-.52.31-1.12.342-1.691a94.79 94.79 0 0 0 .134-4.694c.003-.385-.153-.772-.24-1.157-.056-.248-.223-.526-.159-.735.226-.733.516-1.437.027-2.184-.017-.026.478-.562.657-.521.936.213 1.847.538 2.768.821 1.634.503 3.268 1.005 4.904 1.502.386.117.778.286 1.169.29.298.004.758-.134.868-.351.246-.484.458-.323.49 0 .059.599.448.675.88.79 1.692.451 2.21 1.682 1.332 3.256-.772 1.385-1.645 2.715-2.378 4.12-.28.537-.693 1.32.429 1.593.16.039.271.28.493.45Zm12.96 14.725c-.222-.215-.472-.407-.66-.649-.477-.616-.883-1.294-1.402-1.871-.347-.387-.912-.577-1.253-.968-2.045-2.347-4.699-3.965-7.014-5.986-.152-.133-.375-.184-.564-.273.121.144.228.303.366.429 1.942 1.775 3.893 3.541 5.833 5.32 1.095 1.005 2.16 2.042 3.263 3.036.434.39.936.703 1.384 1.139.226.116.448.241.681.341.032.014.115-.092.175-.143l-.658-.239c-.057-.02-.116-.032-.15-.136Zm-14.402-9.344c1.425 1.452 2.851 2.902 4.274 4.356.613.627 1.162 1.332 1.84 1.877 1.24 1 2.55 1.912 3.842 2.846.177.128.416.172.626.254-.108-.162-.2-.338-.327-.484-.147-.168-.32-.314-.49-.463-1.242-1.09-2.514-2.15-3.723-3.278-1.277-1.192-2.499-2.443-3.737-3.677-1.06-1.056-2.087-2.146-3.173-3.175-.442-.419-.996-.72-1.511-1.057-.05-.034-.19.048-.27.101-.016.01.024.162.074.21.834.796 1.673 1.587 2.575 2.49ZM9.404 9.037c.438-.58.872-1.164 1.314-1.741.121-.158.264-.3.396-.448-.247.045-.584.003-.725.15a72.985 72.985 0 0 0-2.606 2.863c-.346.4-.628.858-.912 1.308-.06.096-.004.267-.002.404.102-.06.226-.102.305-.185.71-.758 1.414-1.523 2.23-2.35Zm-1.36-2.634c-.085 0-.219-.036-.247.004A172.399 172.399 0 0 0 5.622 9.52c-.06.089.005.264.011.398.136-.038.318-.034.4-.123.326-.349.606-.74.928-1.092.61-.667.839-1.729 1.928-1.915.005 0 0-.328-.05-.343-.219-.068-.455-.076-.795-.042ZM2.842 19.856c.745-.731 1.498-1.454 2.222-2.204.087-.09.017-.333.02-.505-.198.022-.54-.01-.573.076-.458 1.182-1.728 1.545-2.425 2.476-.124.166-.261.321-.393.482.242-.026.486-.037.724-.085.112-.022.21-.115.425-.24Zm2.309-5.812c-.389.516-.784 1.027-1.158 1.553-.048.067.012.21.022.318.11-.02.267-.001.324-.068a88.068 88.068 0 0 0 2.137-2.606c.06-.077-.082-.315-.13-.479-.126.07-.278.116-.373.215-.27.285-.518.593-.822 1.067Zm-1.758-2.551.03-.654c-.18.149-.47.269-.518.452-.154.59-.225 1.204-.303 1.813-.004.029.266.162.346.122.718-.359.405-1 .445-1.733Zm8.712-4.474-.22.392c.11-.033.266-.03.322-.104.4-.532.794-1.07 1.155-1.63.063-.1.011-.36-.08-.45a.514.514 0 0 0-.457-.095c-.133.052-.257.23-.306.379-.144.437-.247.887-.414 1.508Zm-8.857 9.92-.209-.529c-.15.105-.367.178-.437.322-.224.462-.393.95-.583 1.428.133.052.363.175.385.144.283-.383.536-.789.844-1.365ZM25.694 33.07c.12-.333.323-.663.333-.999.007-.236-.238-.488-.403-.708-.026-.036-.311.033-.329.095-.155.55-.38 1.124.399 1.612ZM12.209 15.746c-.118-.36-1.48-1.382-1.777-1.32-.064.012-.169.135-.157.158.043.085.114.169.196.22.539.34 1.084.672 1.738.942Zm14.717 13.778c-.07.259-.182.517-.186.776-.001.1.247.201.381.302.1-.27.237-.535.275-.814.013-.092-.232-.218-.47-.264ZM9.473 5.274l-.428-.05c.073.061.15.178.218.173.333-.026.666-.071.994-.137.289-.059.57-.154.855-.233-.378-.016-.757-.052-1.134-.035-.134.006-.263.14-.505.282ZM4.94 6.423l-.097.8.647-.749c-.168-.076-.335-.152-.55-.051Zm7.314 2.149.046.674.503-.62c-.168-.077-.335-.154-.55-.054ZM4.026 4.57l.663-.088-.297-.382c-.144.12-.287.239-.366.47Zm6.967 9.053.549.276-.376-.608c-.116.095-.232.19-.173.332ZM3.178 8.788l.154.325c.049-.107.155-.229.133-.317-.042-.167-.158-.314-.243-.47-.036.117-.072.233-.044.462Zm19.784 20.809.867.516c.027-.053.077-.152.075-.153-.274-.147-.553-.288-.942-.363ZM3.25 6.065c0-.114.01-.229-.005-.34-.03-.212-.075-.422-.114-.633-.028.228-.062.455-.082.683-.007.08.016.162.201.29Zm5.495 6.484-.062.409.347-.128c-.058-.115-.116-.23-.285-.281Z" fill="#fff"/></svg>