<svg width="79" height="68" fill="none" xmlns="http://www.w3.org/2000/svg"><path d="M78.03 68c-3.254-.067-6.293-.497-9.345-.615-2.456-.095-4.925.239-7.39.27-.628.007-1.262-.412-1.894-.635.302-.568.488-1.253.926-1.683 1.785-1.754 3.725-3.355 5.46-5.154 1.76-1.828 1.395-3.4-.805-4.51-.697-.353-1.357-.803-1.979-1.279-2.087-1.598-3.43-3.976-5.815-5.308-1.505-.84-1.75-2.818-2.807-3.99-.96-1.064-3.204-1.112-3.932-2.224-1.395-2.13-3.944-3.366-4.594-6.056-.118-.486-.88-.972-1.445-1.164-.817-.278-2.107.022-2.518-.477-.886-1.077-1.65-2.455-1.877-3.806-.197-1.17-.747-2.311-1.53-2.364-1.445-.096-1.427-.825-1.402-1.768.03-1.153-.099-1.898-1.658-1.769-1.905.16-3.764-.024-4.445-2.456-.18-.645-1.115-1.29-1.833-1.506-.492-.148-1.2.463-1.824.705-.918.357-2-.36-1.986-1.387.015-1.081.215-2.158.245-3.24.018-.661.291-1.79-1.093-.787-.675.489-1.556.738-2.379.978-1.526.445-2.432-.42-2.334-2.111.03-.512-.034-1.03-.07-1.544-.068-.984-.356-1.351-1.306-.6-.427.338-1.057.535-1.612.576-1.678.127-2.002-.327-1.58-2.035.224-.909.464-1.813.697-2.72l-2.695 1.003c-.449.167-.886.389-1.35.489-.723.155-1.463.228-2.196.336.02-.945-.03-1.9.097-2.829.046-.337.745-.614.745-.92.001-.499.558-1.58-.823-1.299-.49.1-1.002.1-1.488.211-2.219.51-2.602.312-2.298-2.007.146-1.115-.5-.649-.728-.588-1.399.37-2.77.843-4.163 1.234C.7 5.057.336 4.95 0 4.933c.102-.34.118-.745.32-1.009C2.728.787 6.16.042 9.857 0c.807-.009.958.35.578 1.174-.327.707-.643 1.884 1.03.975.61-.331 1.487-.986 2.322.147.658.892.833 1.523.13 2.395-.223.275-.296.714-.32 1.086-.018.267.109.742.258.78.298.075.792.03.966-.17.909-1.053 2.066-1.396 3.402-1.568 1.345-.174 1.668.423 1.53 1.544-.057.47-.162.962-.374 1.379-.699 1.371-.796 2.007 1.15 1.436 1.142-.336 1.855.614 2.078 1.699.144.699.118 1.438.12 2.159.004.972.143.917.935.381.844-.57 1.959-.983 2.97-1.012 1.41-.041 2.516 1.237 2.108 2.625-.483 1.637.364 2.51 1.469 2.766 1.766.408 2.651 1.664 2.913 3 .356 1.828 1.514 1.392 2.57 1.448 1.144.06 2.297-.02 3.44.058.347.024.936.332.968.57.371 2.734 3.52 4.392 2.885 7.534-.208 1.029.473 1.491 1.57 1.742 1.98.452 3.135 1.94 4.51 3.447 2.144 2.352 3.452 5.684 6.969 6.765.737.226 1.22 1.458 1.705 2.293.955 1.645 2.192 2.801 3.888 3.846 2.193 1.35 3.9 3.492 5.793 5.318.343.33.503.86.861 1.163 1.287 1.09 2.897.532 3.08-1.114.11-.983-.219-2.417 1.085-2.338.717.044 1.355 1.493 2.018 2.318.052.065-.027.243.028.298 1.8 1.824 1.962 4.357 2.834 6.574.704 1.788 1.226 3.66 1.663 5.531.1.428-.482 1.01-.959 1.751Z" fill="#fff"/></svg>