<svg width="52" height="53" fill="none" xmlns="http://www.w3.org/2000/svg"><path d="M32.736 22.558c-2.874 3.988-5.672 7.87-8.597 11.654-2.68 3.467-5.529 6.806-8.243 10.249-1.596 2.024-3.07 4.143-4.608 6.211-.31.417-.638.827-1.007 1.191-.755.744-1.376.913-1.565-.443-.025-.177-.218-.475-.328-.473-1.335.02-2.725-1.029-4.021.222-.216.208-.756.083-1.146.113.055-.416.066-.844.18-1.243.086-.306.306-.573.458-.862.101-.192.186-.393.278-.59-.233-.055-.464-.128-.7-.16-.58-.082-1.345.063-1.712-.254-1.485-1.28-1.195-2.317.732-3.04 1.75-.655 1.814-1.054.415-2.313a7.235 7.235 0 0 1-.978-1.1c-.2-.273-.307-.61-.455-.92.452 0 .905-.004 1.357.003.031 0 .053.09.093.114.849.483 1.884 1.513 2.503 1.308.81-.268 1.314-1.495 1.907-2.34 2.044-2.907 4.005-5.873 6.114-8.732 3.87-5.25 7.811-10.447 11.751-15.644.874-1.154.244-1.914-.565-2.63-2.284-2.018-4.626-3.97-6.869-6.032-.493-.454-.935-1.25-.939-1.891-.011-1.951.14-1.878 2.104-1.775 1.707.09 3.43-.185 5.149-.247.783-.028 1.584-.007 2.353.126 2.153.372 4.247.51 6.402-.19.84-.272 1.916.282 2.868.22 2.603-.172 5.2-.442 7.792-.742.638-.074 1.245-.411 1.864-.633.399-.144.826-.478 1.184-.414 1.26.223 2.483.558 3.619-.403.04-.034 1.028.676.997.98-.162 1.593-.513 3.166-.792 4.747-.496 2.806-.993 5.613-1.479 8.421-.115.662-.314 1.345-.241 1.993.056.495.379 1.226.76 1.365.85.307.628.69.1.81-.979.22-1.024.88-1.126 1.619-.4 2.89-2.33 4-5.114 2.87-2.45-.993-4.828-2.166-7.302-3.089-.947-.353-2.328-.876-2.548 1.035-.032.274-.408.507-.645.909Zm-21.703 24.46c.31-.412.576-.866.938-1.226.922-.916 1.96-1.727 2.809-2.703.568-.654.767-1.628 1.343-2.27 3.464-3.865 5.596-8.587 8.466-12.832.188-.279.227-.657.335-.99-.213.23-.454.441-.634.694-2.54 3.578-5.061 7.167-7.606 10.74-1.437 2.018-2.935 3.992-4.353 6.022-.557.797-.97 1.693-1.6 2.523-.147.397-.307.79-.426 1.197-.016.055.177.171.273.259.087-.379.176-.758.26-1.137.023-.098.03-.199.195-.277Zm12.504-25.743c-2.11 2.655-4.215 5.313-6.329 7.964-.91 1.143-1.965 2.196-2.729 3.428-1.398 2.257-2.64 4.612-3.92 6.94-.175.32-.198.723-.292 1.088.247-.211.52-.4.734-.639.248-.278.455-.595.665-.905 1.55-2.28 3.042-4.6 4.66-6.832 1.71-2.357 3.53-4.635 5.317-6.937 1.53-1.97 3.123-3.893 4.601-5.9.603-.817.988-1.796 1.44-2.717.045-.09-.118-.303-.223-.426-.02-.024-.262.073-.331.166-1.147 1.543-2.283 3.093-3.593 4.77Zm15.433-5.941c1.05.604 2.104 1.204 3.15 1.816.286.168.549.375.823.564-.126-.4-.125-.965-.398-1.17a121.619 121.619 0 0 0-5.27-3.723c-.731-.491-1.549-.863-2.35-1.24-.172-.081-.444.046-.67.078.122.158.215.354.37.466 1.398 1.021 2.808 2.027 4.345 3.209Zm4.078-2.791c-.016-.14.015-.369-.057-.408a287.516 287.516 0 0 0-5.595-2.959c-.16-.082-.435.061-.657.1.092.217.122.518.286.636.644.467 1.348.851 1.997 1.312 1.229.872 3.032 1.032 3.563 2.797.002.007.543-.07.558-.155.067-.374.033-.767-.095-1.323Zm-23.32-5.847c1.36 1.082 2.71 2.18 4.1 3.223.168.126.555-.039.84-.07-.077-.323-.092-.895-.242-.932-2.05-.514-2.91-2.543-4.594-3.504-.3-.171-.586-.367-.878-.551.093.394.161.797.289 1.18.06.18.232.324.484.654Zm10.087 2.628c-.933-.537-1.86-1.086-2.806-1.598-.12-.064-.345.064-.522.103.057.178.057.441.178.52a146.951 146.951 0 0 0 4.75 3.002c.14.084.505-.2.766-.314-.142-.194-.248-.435-.433-.571-.527-.39-1.085-.736-1.933-1.142Zm3.86-3.432 1.088-.084c-.283-.266-.54-.722-.853-.764-1.01-.135-2.04-.125-3.061-.13-.05 0-.215.473-.132.598.74 1.114 1.736.466 2.958.38Zm9.188 13.496-.695-.284c.078.175.105.434.24.511a45.175 45.175 0 0 0 2.934 1.577c.177.085.596-.055.728-.225.14-.18.17-.573.061-.775-.112-.21-.432-.379-.688-.43-.752-.146-1.518-.226-2.58-.374ZM24.637 6.77l.831-.454c-.205-.226-.37-.572-.623-.658-.81-.275-1.652-.455-2.482-.67-.058.23-.214.634-.159.665.693.39 1.416.725 2.433 1.117ZM2.55 47.21c.575.13 1.164.4 1.72.346.393-.037.76-.493 1.09-.811.055-.052-.118-.509-.225-.525-.94-.144-1.937-.399-2.585.99Zm25.896-25.861c.571-.27 1.984-2.73 1.821-3.21-.034-.104-.259-.251-.294-.228a.957.957 0 0 0-.325.37c-.452.961-.89 1.93-1.202 3.068ZM8.671 48.52c-.442-.062-.892-.195-1.322-.148-.165.018-.283.45-.421.692.467.108.934.282 1.403.288.154.002.313-.429.34-.832Zm36.54-33.845-.008-.718c-.085.133-.262.285-.24.396.112.545.255 1.088.432 1.616.156.466.371.912.56 1.367-.052-.63-.07-1.264-.175-1.884-.037-.22-.287-.405-.57-.777Zm-2.83-7.265c-.45 0-.898.002-1.346.003l1.372.916c.092-.292.183-.585-.027-.92Zm-2.056 12.54-1.106.214 1.128.705c.093-.293.186-.585-.022-.92Zm4.932-14.43.28 1.078.572-.57c-.227-.212-.454-.424-.852-.508ZM31.708 18.902l-.344.965.929-.746c-.181-.173-.362-.346-.585-.219Zm6.398-13.92-.506.321c.187.06.41.211.552.156.267-.103.487-.326.726-.499-.2-.035-.4-.07-.772.023ZM7.738 41.979l-.676 1.54c.093.033.267.097.268.094.188-.485.362-.974.408-1.634ZM42.626 4.544c.187-.025.38-.03.56-.08.346-.092.684-.21 1.025-.318-.383 0-.766-.008-1.148.005-.133.004-.263.06-.437.393Zm-9.6 10.42-.69-.02.283.547c.179-.119.358-.238.407-.528Z" fill="#fff"/></svg>