<svg width="79" height="30" fill="none" xmlns="http://www.w3.org/2000/svg"><path d="M9.629 15.185c0-.748-.199-1.282-.596-1.601-.39-.319-.94-.479-1.65-.479H4.58v4.239h2.803c.71 0 1.26-.173 1.65-.518.397-.345.596-.892.596-1.64Zm2.978-.019c0 1.7-.43 2.9-1.289 3.604-.859.703-2.086 1.054-3.681 1.054H4.58V25H1.592V10.605h6.27c1.445 0 2.597.372 3.456 1.114.86.742 1.29 1.891 1.29 3.447Zm7.413-1.064c.052 0 .094.003.127.01.039 0 .12.003.244.01v2.85a7.492 7.492 0 0 0-.8-.048c-1.12 0-1.873.364-2.257 1.094-.215.41-.322 1.041-.322 1.894V25H14.21V14.355h2.657v1.856c.43-.71.804-1.195 1.123-1.455.52-.436 1.198-.654 2.03-.654Zm5.81 2.265c-.644 0-1.145.202-1.503.606-.352.403-.573.95-.664 1.64h4.326c-.046-.735-.27-1.292-.674-1.67-.397-.384-.892-.576-1.484-.576Zm0-2.295c.886 0 1.684.166 2.393.498.71.332 1.296.856 1.758 1.573.417.631.687 1.363.81 2.197.072.488.102 1.191.089 2.11h-7.285c.039 1.067.374 1.816 1.005 2.245.384.267.847.4 1.387.4.573 0 1.039-.162 1.397-.488a2.32 2.32 0 0 0 .517-.732h2.842c-.072.631-.4 1.273-.986 1.924-.912 1.035-2.188 1.553-3.829 1.553a5.398 5.398 0 0 1-3.584-1.309c-1.035-.872-1.552-2.292-1.552-4.258 0-1.842.465-3.255 1.396-4.238.938-.983 2.152-1.475 3.643-1.475Zm8.702 7.53c.059.494.186.846.381 1.054.345.371.983.557 1.914.557.547 0 .98-.082 1.3-.244.325-.163.487-.407.487-.733a.79.79 0 0 0-.39-.713c-.26-.162-1.227-.442-2.9-.84-1.205-.299-2.055-.673-2.55-1.122-.494-.443-.742-1.081-.742-1.915 0-.983.385-1.826 1.153-2.529.774-.71 1.862-1.064 3.261-1.064 1.329 0 2.41.267 3.243.8.84.528 1.321 1.443 1.445 2.745h-2.783c-.04-.358-.14-.642-.303-.85-.306-.378-.827-.566-1.563-.566-.605 0-1.038.094-1.298.283-.254.189-.381.41-.381.664 0 .319.137.55.41.693.273.15 1.24.407 2.9.772 1.107.26 1.937.654 2.49 1.181.547.534.821 1.202.821 2.002 0 1.055-.394 1.918-1.182 2.588-.78.664-1.992.996-3.633.996-1.673 0-2.91-.351-3.71-1.054-.795-.71-1.192-1.612-1.192-2.705h2.822Zm10.733 0c.059.494.186.846.381 1.054.345.371.983.557 1.914.557.547 0 .98-.082 1.299-.244.325-.163.488-.407.488-.733a.79.79 0 0 0-.39-.713c-.26-.162-1.228-.442-2.9-.84-1.205-.299-2.055-.673-2.55-1.122-.494-.443-.742-1.081-.742-1.915 0-.983.384-1.826 1.153-2.529.774-.71 1.862-1.064 3.261-1.064 1.328 0 2.41.267 3.242.8.84.528 1.322 1.443 1.446 2.745h-2.783c-.04-.358-.14-.642-.303-.85-.306-.378-.827-.566-1.563-.566-.605 0-1.038.094-1.299.283-.253.189-.38.41-.38.664 0 .319.136.55.41.693.273.15 1.24.407 2.9.772 1.107.26 1.937.654 2.49 1.181.547.534.82 1.202.82 2.002 0 1.055-.393 1.918-1.18 2.588-.782.664-1.993.996-3.634.996-1.673 0-2.91-.351-3.71-1.054-.795-.71-1.192-1.612-1.192-2.705h2.822ZM59.7 19.824c-.176.11-.355.202-.537.274a4.7 4.7 0 0 1-.732.185l-.625.117c-.586.105-1.006.232-1.26.381-.43.254-.645.648-.645 1.182 0 .475.13.82.391 1.035.267.208.59.313.967.313.599 0 1.149-.176 1.65-.528.508-.351.772-.993.791-1.924v-1.035Zm-1.69-1.299c.515-.065.883-.146 1.104-.244.397-.169.596-.433.596-.79 0-.437-.153-.736-.459-.9-.3-.169-.742-.253-1.328-.253-.658 0-1.123.163-1.397.488-.195.241-.325.567-.39.977h-2.686c.059-.931.32-1.696.782-2.295.735-.938 1.998-1.406 3.788-1.406 1.166 0 2.201.23 3.106.693.905.462 1.357 1.335 1.357 2.617v4.883c0 .338.007.749.02 1.23.02.365.075.612.166.743.091.13.228.237.41.322V25h-3.027a3.098 3.098 0 0 1-.176-.605 7.269 7.269 0 0 1-.078-.645 5.718 5.718 0 0 1-1.328 1.064c-.6.346-1.276.518-2.032.518-.963 0-1.76-.273-2.392-.82-.625-.554-.938-1.335-.938-2.344 0-1.309.505-2.256 1.514-2.842.553-.319 1.367-.547 2.441-.683l.948-.118Z" fill="url(#a)"/><path d="M65.937 19.28a7.642 7.642 0 0 0-6.267-8.037.202.202 0 0 0-.23.155l-.302 1.342a.193.193 0 0 0 .152.232 5.917 5.917 0 0 1 4.878 6.255c-.005.109.079.2.188.204l1.375.036a.202.202 0 0 0 .206-.188Zm4.487.112a12.223 12.223 0 0 0-9.766-12.53.201.201 0 0 0-.236.153l-.301 1.342a.19.19 0 0 0 .148.23 10.513 10.513 0 0 1 6.18 3.835 10.502 10.502 0 0 1 2.208 6.927.19.19 0 0 0 .186.199l1.375.036a.202.202 0 0 0 .206-.192Zm4.456.117c.135-3.84-1.014-7.723-3.539-10.962-2.508-3.219-5.963-5.274-9.691-6.093a.197.197 0 0 0-.151.026.2.2 0 0 0-.089.126l-.3 1.342a.192.192 0 0 0 .143.23 15.072 15.072 0 0 1 8.681 5.465 15.075 15.075 0 0 1 3.178 9.826.19.19 0 0 0 .188.197l1.375.036a.198.198 0 0 0 .205-.193Z" fill="url(#b)"/><defs><linearGradient id="a" x1="-26.244" y1="28.083" x2="64.206" y2="7.163" gradientUnits="userSpaceOnUse"><stop stop-color="#17266E"/><stop offset="1" stop-color="#526EFF"/></linearGradient><linearGradient id="b" x1="50.329" y1="-.112" x2="73.472" y2="22" gradientUnits="userSpaceOnUse"><stop stop-color="#17266E"/><stop offset="1" stop-color="#526EFF"/></linearGradient></defs></svg>