<svg width="18" height="14" viewBox="0 0 18 14" fill="none" xmlns="http://www.w3.org/2000/svg">
<path fill-rule="evenodd" clip-rule="evenodd" d="M1.77406 6.99992C3.79435 10.1388 6.08887 12.2499 9 12.2499C11.9111 12.2499 14.2056 10.1388 16.2259 6.99992C14.2056 3.86103 11.9111 1.74992 9 1.74992C6.08887 1.74992 3.79435 3.86103 1.77406 6.99992ZM0.588668 6.69075C2.68743 3.33273 5.33904 0.583252 9 0.583252C12.661 0.583252 15.3126 3.33273 17.4113 6.69075C17.5296 6.87991 17.5296 7.11993 17.4113 7.30908C15.3126 10.6671 12.661 13.4166 9 13.4166C5.33904 13.4166 2.68743 10.6671 0.588668 7.30908C0.470444 7.11993 0.470444 6.87991 0.588668 6.69075Z" fill="#17266E"/>
<path fill-rule="evenodd" clip-rule="evenodd" d="M9.00033 5.08317C7.94178 5.08317 7.08366 5.94129 7.08366 6.99984C7.08366 8.05838 7.94178 8.9165 9.00033 8.9165C10.0589 8.9165 10.917 8.05838 10.917 6.99984C10.917 5.94129 10.0589 5.08317 9.00033 5.08317ZM5.91699 6.99984C5.91699 5.29696 7.29745 3.9165 9.00033 3.9165C10.7032 3.9165 12.0837 5.29696 12.0837 6.99984C12.0837 8.70272 10.7032 10.0832 9.00033 10.0832C7.29745 10.0832 5.91699 8.70272 5.91699 6.99984Z" fill="#17266E"/>
</svg>
