<svg width="24" height="24" viewBox="0 0 24 24" fill="none" xmlns="http://www.w3.org/2000/svg">
<path d="M22.2644 2.42815C21.9797 2.1913 21.6361 2.03609 21.2702 1.97904C20.9043 1.92199 20.5297 1.96522 20.1864 2.10415L2.26542 9.33915C1.88227 9.49684 1.55613 9.76731 1.33026 10.1147C1.10439 10.462 0.989476 10.8698 1.00076 11.284C1.01204 11.6982 1.14899 12.0991 1.39343 12.4337C1.63787 12.7682 1.97825 13.0205 2.36942 13.1571L5.99442 14.4181L8.01442 21.1001C8.0421 21.1893 8.08216 21.2741 8.13342 21.3521C8.14142 21.3641 8.15242 21.3721 8.16042 21.3851C8.21935 21.4672 8.29051 21.5397 8.37142 21.6001C8.394 21.6178 8.41736 21.6345 8.44142 21.6501C8.53614 21.713 8.64101 21.759 8.75142 21.7861L8.76442 21.7871L8.77042 21.7901C8.83725 21.8036 8.90525 21.8103 8.97342 21.8101L8.99142 21.8071C9.09383 21.8054 9.19536 21.7879 9.29242 21.7551C9.31542 21.7471 9.33442 21.7351 9.35642 21.7251C9.42901 21.6954 9.49783 21.6571 9.56142 21.6111C9.61207 21.5681 9.66273 21.5251 9.71342 21.4821L12.4154 18.4991L16.4454 21.6211C16.8001 21.8974 17.2368 22.0477 17.6864 22.0481C18.1577 22.0476 18.6144 21.885 18.98 21.5877C19.3456 21.2904 19.5978 20.8764 19.6944 20.4151L22.9574 4.39815C23.0312 4.0378 23.0057 3.66418 22.8837 3.3172C22.7616 2.97022 22.5476 2.66292 22.2644 2.42815ZM9.36942 14.7361C9.23092 14.8744 9.1363 15.0504 9.09741 15.2421L8.78742 16.7461L8.00342 14.1531L12.0684 12.0361L9.36942 14.7361ZM17.6714 20.0401L12.9084 16.3501C12.7091 16.1964 12.4592 16.1233 12.2084 16.1455C11.9577 16.1678 11.7245 16.2837 11.5554 16.4701L10.6894 17.4251L10.9954 15.9381L18.0784 8.85515C18.2465 8.68606 18.3486 8.4625 18.3664 8.22477C18.3841 7.98703 18.3164 7.75077 18.1754 7.55857C18.0343 7.36638 17.8293 7.23089 17.5971 7.17654C17.365 7.12219 17.1211 7.15255 16.9094 7.26215L6.74442 12.5541L3.01942 11.1911L20.9984 4.00015L17.6714 20.0401Z" fill="white"/>
</svg>
