<svg width="14" height="14" viewBox="0 0 14 14" fill="none" xmlns="http://www.w3.org/2000/svg">
<path fill-rule="evenodd" clip-rule="evenodd" d="M10.2452 9.30493C11.8744 7.21261 11.7272 4.1855 9.80379 2.26205C7.72099 0.179252 4.34411 0.179252 2.26132 2.26205C0.17852 4.34484 0.17852 7.72172 2.26132 9.80452C4.18477 11.728 7.21188 11.8751 9.3042 10.246C9.31323 10.2562 9.32262 10.2662 9.33238 10.2759L12.1608 13.1044C12.4212 13.3647 12.8433 13.3647 13.1036 13.1044C13.364 12.844 13.364 12.4219 13.1036 12.1615L10.2752 9.33312C10.2654 9.32336 10.2554 9.31396 10.2452 9.30493ZM8.86098 3.20486C10.4231 4.76695 10.4231 7.29962 8.86098 8.86171C7.29888 10.4238 4.76622 10.4238 3.20412 8.86171C1.64203 7.29962 1.64203 4.76695 3.20412 3.20486C4.76622 1.64276 7.29888 1.64276 8.86098 3.20486Z" fill="#17266E"/>
</svg>
