<svg width="24" height="24" viewBox="0 0 24 24" fill="none" xmlns="http://www.w3.org/2000/svg">
<path d="M8.9594 14.2498C8.22538 14.2498 7.50783 14.0322 6.8975 13.6245C6.28716 13.2167 5.81146 12.6371 5.53055 11.9589C5.24965 11.2808 5.17615 10.5346 5.31937 9.81468C5.46259 9.09477 5.81609 8.43351 6.33515 7.91451L10.1647 4.08651C10.8606 3.39052 11.8046 2.99951 12.7889 2.99951C13.7732 2.99951 14.7172 3.39052 15.4132 4.08651C16.1091 4.78251 16.5002 5.72648 16.5002 6.71076C16.5002 7.69505 16.1091 8.63902 15.4132 9.33501L14.9984 9.74901L13.9372 8.68926L14.3549 8.27151C14.7681 7.85637 14.9998 7.29434 14.9992 6.70864C14.9986 6.12294 14.7659 5.56136 14.3519 5.14701C13.9306 4.74492 13.3706 4.52058 12.7882 4.52058C12.2057 4.52058 11.6457 4.74492 11.2244 5.14701L7.3964 8.97501C7.1909 9.18028 7.02788 9.42405 6.91665 9.69237C6.80542 9.96069 6.74817 10.2483 6.74817 10.5388C6.74817 10.8292 6.80542 11.1168 6.91665 11.3852C7.02788 11.6535 7.1909 11.8972 7.3964 12.1025C7.81773 12.5046 8.37775 12.7289 8.96015 12.7289C9.54255 12.7289 10.1026 12.5046 10.5239 12.1025L11.5844 13.163C11.2404 13.5087 10.8313 13.7827 10.3807 13.9693C9.93016 14.1558 9.44706 14.2511 8.9594 14.2498Z" fill="white"/>
<path d="M14.9594 12.7498C14.2254 12.7498 13.5078 12.5322 12.8975 12.1245C12.2872 11.7167 11.8115 11.1371 11.5306 10.4589C11.2496 9.78081 11.1762 9.03459 11.3194 8.31468C11.4626 7.59477 11.8161 6.93351 12.3352 6.41451L12.7499 6.00051L13.8104 7.06176L13.3964 7.47576C12.9818 7.8904 12.7489 8.45276 12.7489 9.03914C12.7489 9.62551 12.9818 10.1879 13.3964 10.6025C13.8177 11.0046 14.3778 11.2289 14.9602 11.2289C15.5426 11.2289 16.1026 11.0046 16.5239 10.6025L20.3527 6.77376C20.7665 6.35886 20.9989 5.79677 20.9989 5.21076C20.9989 4.62475 20.7665 4.06266 20.3527 3.64776C19.9313 3.24567 19.3713 3.02133 18.7889 3.02133C18.2065 3.02133 17.6465 3.24567 17.2252 3.64776L16.1647 2.58651C16.8606 1.89052 17.8046 1.49951 18.7889 1.49951C19.7732 1.49951 20.7172 1.89052 21.4132 2.58651C22.1091 3.28251 22.5002 4.22648 22.5002 5.21076C22.5002 6.19505 22.1091 7.13902 21.4132 7.83501L17.5852 11.6623C17.2412 12.008 16.8321 12.2821 16.3815 12.4688C15.931 12.6555 15.4479 12.751 14.9602 12.7498H14.9594Z" fill="white"/>
<path d="M18 22.5H3C2.6023 22.4996 2.221 22.3414 1.93978 22.0602C1.65856 21.779 1.5004 21.3977 1.5 21V6C1.5004 5.6023 1.65856 5.221 1.93978 4.93978C2.221 4.65856 2.6023 4.5004 3 4.5H6V6H3V21H18V13.5H19.5V21C19.4996 21.3977 19.3414 21.779 19.0602 22.0602C18.779 22.3414 18.3977 22.4996 18 22.5Z" fill="white"/>
</svg>
