<svg width="20" height="20" fill="none" xmlns="http://www.w3.org/2000/svg"><path d="M0 10a10 10 0 1 1 20 0 10 10 0 0 1-20 0Zm9.375-8.654c-.838.255-1.669 1.025-2.359 2.319-.227.43-.423.876-.585 1.335h2.944V1.346ZM5.112 5c.209-.664.477-1.308.8-1.924.217-.408.466-.799.747-1.166A8.781 8.781 0 0 0 2.819 5h2.293Zm-.727 4.375c.038-1.096.173-2.147.39-3.125H2.092a8.698 8.698 0 0 0-.82 3.125h3.113ZM6.059 6.25a15.625 15.625 0 0 0-.423 3.125h3.739V6.25H6.059Zm4.566 0v3.125h3.738a15.615 15.615 0 0 0-.422-3.125h-3.316Zm-4.987 4.375c.034 1.053.175 2.1.42 3.125h3.317v-3.125H5.638Zm4.987 0v3.125h3.316c.234-.956.383-2.01.423-3.125h-3.739ZM6.431 15c.173.482.369.93.585 1.335.69 1.294 1.523 2.063 2.359 2.319V15H6.431Zm.228 3.09a8.371 8.371 0 0 1-.747-1.166 11.584 11.584 0 0 1-.8-1.924H2.82a8.78 8.78 0 0 0 3.84 3.09Zm-1.884-4.34a17.065 17.065 0 0 1-.39-3.125H1.273a8.658 8.658 0 0 0 .82 3.125h2.682Zm8.566 4.34a8.78 8.78 0 0 0 3.84-3.09h-2.294a11.588 11.588 0 0 1-.8 1.924 8.361 8.361 0 0 1-.746 1.166ZM10.625 15v3.654c.838-.255 1.669-1.025 2.359-2.319.216-.405.412-.853.585-1.335h-2.944Zm4.6-1.25h2.682a8.657 8.657 0 0 0 .82-3.125h-3.112a17.06 17.06 0 0 1-.39 3.125Zm3.502-4.375a8.698 8.698 0 0 0-.82-3.125h-2.682c.218.978.353 2.029.39 3.125h3.112Zm-4.64-6.299c.31.58.578 1.225.8 1.924h2.294a8.78 8.78 0 0 0-3.84-3.09c.273.355.523.748.747 1.166ZM13.57 5a9.96 9.96 0 0 0-.585-1.335c-.69-1.294-1.521-2.063-2.359-2.319V5h2.944Z" fill="#fff"/></svg>