<svg width="20" height="20" viewBox="0 0 20 20" fill="none" xmlns="http://www.w3.org/2000/svg">
<path d="M17.0781 2.90755C16.157 1.98215 15.0602 1.24849 13.8515 0.749316C12.6427 0.250143 11.3463 -0.00455533 10.0377 6.1663e-05C4.55424 6.1663e-05 0.0853842 4.44755 0.0803616 9.90753C0.0803616 11.6563 0.53993 13.3575 1.40758 14.8638L0 20L5.27875 18.6225C6.73908 19.4136 8.3751 19.8283 10.0377 19.8288H10.0427C15.5274 19.8288 19.995 15.3813 20 9.91628C20.0012 8.61384 19.7436 7.32402 19.2419 6.12114C18.7402 4.91826 18.0044 3.82609 17.0768 2.90755H17.0781ZM10.0377 18.1513C8.55474 18.1518 7.09907 17.7545 5.8237 17.0013L5.52235 16.8213L2.39076 17.6388L3.22702 14.5975L3.03114 14.2838C2.20217 12.9717 1.76375 11.4526 1.7667 9.90253C1.7667 5.37005 5.47966 1.67256 10.0427 1.67256C11.1298 1.67062 12.2065 1.8829 13.2107 2.29717C14.215 2.71144 15.1269 3.3195 15.894 4.0863C16.6638 4.85011 17.274 5.75808 17.6895 6.75783C18.105 7.75758 18.3176 8.82934 18.3149 9.91128C18.3099 14.46 14.5969 18.1513 10.0377 18.1513ZM14.5768 11.9838C14.3295 11.86 13.1077 11.2613 12.8779 11.1763C12.6494 11.095 12.4824 11.0525 12.3192 11.3C12.1522 11.5463 11.675 12.1075 11.5319 12.2688C11.3887 12.435 11.2406 12.4538 10.992 12.3313C10.7446 12.2063 9.94224 11.9463 8.99297 11.1C8.25213 10.4438 7.75615 9.63128 7.60798 9.38503C7.46484 9.13753 7.59417 9.00503 7.71848 8.88128C7.82772 8.77129 7.96584 8.59128 8.09015 8.44879C8.21572 8.30629 8.25715 8.20129 8.33877 8.03629C8.42039 7.86879 8.38146 7.72629 8.31994 7.60254C8.25715 7.47879 7.76117 6.25754 7.55148 5.76504C7.35058 5.2788 7.1459 5.34629 6.99271 5.34004C6.84957 5.3313 6.68257 5.3313 6.51557 5.3313C6.38946 5.33442 6.26535 5.36345 6.15105 5.41658C6.03674 5.46972 5.9347 5.54579 5.85133 5.64004C5.6228 5.88754 4.98368 6.48629 4.98368 7.70754C4.98368 8.92878 5.87519 10.1025 6.00075 10.2688C6.12381 10.435 7.75113 12.9338 10.2486 14.0088C10.8388 14.265 11.3034 14.4163 11.6662 14.5313C12.2627 14.7213 12.8014 14.6925 13.2308 14.6313C13.7079 14.5588 14.7012 14.0313 14.9108 13.4525C15.1168 12.8725 15.1168 12.3775 15.054 12.2738C14.9925 12.1688 14.8255 12.1075 14.5768 11.9838Z" fill="white"/>
</svg>
