<svg width="12" height="11" viewBox="0 0 12 11" fill="none" xmlns="http://www.w3.org/2000/svg">
<path fill-rule="evenodd" clip-rule="evenodd" d="M3.27211 0.033C3.85801 0.00599999 4.04481 0 5.53726 0C7.02971 0 7.21652 0.00649999 7.80191 0.033C8.3873 0.0595 8.78689 0.153 9.13652 0.2885C9.50264 0.427 9.8348 0.6435 10.1095 0.9235C10.3892 1.198 10.605 1.53 10.7429 1.897C10.8787 2.247 10.9716 2.647 10.9986 3.232C11.0256 3.8195 11.0316 4.0065 11.0316 5.5C11.0316 6.994 11.0251 7.181 10.9986 7.7675C10.9721 8.3525 10.8787 8.7525 10.7429 9.1025C10.605 9.46955 10.3889 9.8021 10.1095 10.077C9.8348 10.357 9.50264 10.573 9.13652 10.711C8.78689 10.847 8.3873 10.94 7.80291 10.967C7.21652 10.994 7.02971 11 5.53726 11C4.04481 11 3.85801 10.9935 3.27211 10.967C2.68772 10.9405 2.28814 10.847 1.9385 10.711C1.57184 10.573 1.23964 10.3566 0.965011 10.077C0.685491 9.80233 0.469183 9.46994 0.331169 9.103C0.19581 8.753 0.102906 8.353 0.0759345 7.768C0.0489625 7.1805 0.0429688 6.9935 0.0429688 5.5C0.0429688 4.006 0.049462 3.819 0.0759345 3.233C0.102407 2.647 0.19581 2.247 0.331169 1.897C0.469387 1.53004 0.68586 1.19766 0.96551 0.923C1.23975 0.643251 1.57162 0.426722 1.938 0.2885C2.28764 0.153 2.68772 0.06 3.27211 0.033ZM7.75746 1.023C7.17806 0.9965 7.00424 0.991 5.53726 0.991C4.07029 0.991 3.89647 0.9965 3.31707 1.023C2.78112 1.0475 2.49043 1.137 2.29663 1.2125C2.04039 1.3125 1.85708 1.431 1.66478 1.6235C1.4825 1.80103 1.34221 2.01714 1.25421 2.256C1.17879 2.45 1.08938 2.741 1.06491 3.2775C1.03843 3.8575 1.03294 4.0315 1.03294 5.5C1.03294 6.9685 1.03843 7.1425 1.06491 7.7225C1.08938 8.259 1.17879 8.55 1.25421 8.744C1.34212 8.9825 1.48247 9.199 1.66478 9.3765C1.8421 9.559 2.05838 9.6995 2.29663 9.7875C2.49043 9.863 2.78112 9.9525 3.31707 9.977C3.89647 10.0035 4.06979 10.009 5.53726 10.009C7.00474 10.009 7.17806 10.0035 7.75746 9.977C8.2934 9.9525 8.5841 9.863 8.7779 9.7875C9.03413 9.6875 9.21744 9.569 9.40974 9.3765C9.59205 9.199 9.7324 8.9825 9.82031 8.744C9.89574 8.55 9.98514 8.259 10.0096 7.7225C10.0361 7.1425 10.0416 6.9685 10.0416 5.5C10.0416 4.0315 10.0361 3.8575 10.0096 3.2775C9.98514 2.741 9.89574 2.45 9.82031 2.256C9.72042 1.9995 9.60204 1.816 9.40974 1.6235C9.23239 1.44104 9.0165 1.30061 8.7779 1.2125C8.5841 1.137 8.2934 1.0475 7.75746 1.023ZM4.83549 7.1955C5.22741 7.35882 5.66382 7.38086 6.07017 7.25786C6.47653 7.13486 6.82762 6.87446 7.06348 6.52112C7.29935 6.16778 7.40535 5.74344 7.36339 5.32055C7.32143 4.89767 7.13411 4.50249 6.83342 4.2025C6.64173 4.01074 6.40996 3.86391 6.15479 3.77257C5.89961 3.68124 5.62738 3.64768 5.3577 3.67431C5.08801 3.70094 4.82758 3.78709 4.59514 3.92657C4.36271 4.06604 4.16406 4.25537 4.0135 4.48093C3.86293 4.70648 3.7642 4.96264 3.7244 5.23098C3.68461 5.49932 3.70474 5.77315 3.78335 6.03276C3.86197 6.29237 3.9971 6.5313 4.17903 6.73236C4.36096 6.93342 4.58516 7.09159 4.83549 7.1955ZM3.54034 3.501C3.80258 3.23849 4.1139 3.03025 4.45653 2.88818C4.79917 2.74611 5.1664 2.67299 5.53726 2.67299C5.90813 2.67299 6.27536 2.74611 6.61799 2.88818C6.96062 3.03025 7.27195 3.23849 7.53419 3.501C7.79643 3.76351 8.00445 4.07516 8.14637 4.41815C8.28829 4.76114 8.36134 5.12875 8.36134 5.5C8.36134 5.87125 8.28829 6.23886 8.14637 6.58185C8.00445 6.92484 7.79643 7.23649 7.53419 7.499C7.00457 8.02917 6.28625 8.32701 5.53726 8.32701C4.78827 8.32701 4.06995 8.02917 3.54034 7.499C3.01072 6.96883 2.71318 6.24977 2.71318 5.5C2.71318 4.75023 3.01072 4.03117 3.54034 3.501ZM8.98768 3.094C9.05266 3.03263 9.10469 2.95884 9.14067 2.87699C9.17665 2.79513 9.19587 2.70688 9.19717 2.61747C9.19847 2.52805 9.18184 2.43927 9.14825 2.35641C9.11467 2.27354 9.06481 2.19826 9.00164 2.13502C8.93847 2.07178 8.86327 2.02188 8.78049 1.98826C8.69771 1.95464 8.60903 1.93799 8.5197 1.93929C8.43037 1.9406 8.34222 1.95983 8.26045 1.99585C8.17868 2.03187 8.10496 2.08395 8.04366 2.149C7.92444 2.27551 7.85917 2.44356 7.8617 2.61747C7.86423 2.79137 7.93437 2.95744 8.05722 3.08042C8.18008 3.2034 8.34597 3.27361 8.5197 3.27615C8.69342 3.27868 8.86129 3.21334 8.98768 3.094Z" fill="white"/>
</svg>
