<svg width="20" height="20" viewBox="0 0 20 20" fill="none" xmlns="http://www.w3.org/2000/svg">
<path fill-rule="evenodd" clip-rule="evenodd" d="M2.77406 9.99992C4.79435 13.1388 7.08887 15.2499 10 15.2499C12.9111 15.2499 15.2056 13.1388 17.2259 9.99992C15.2056 6.86103 12.9111 4.74992 10 4.74992C7.08887 4.74992 4.79435 6.86103 2.77406 9.99992ZM1.58867 9.69075C3.68743 6.33273 6.33904 3.58325 10 3.58325C13.661 3.58325 16.3126 6.33273 18.4113 9.69075C18.5296 9.87991 18.5296 10.1199 18.4113 10.3091C16.3126 13.6671 13.661 16.4166 10 16.4166C6.33904 16.4166 3.68743 13.6671 1.58867 10.3091C1.47044 10.1199 1.47044 9.87991 1.58867 9.69075Z" fill="#17266E"/>
<path fill-rule="evenodd" clip-rule="evenodd" d="M10.0003 8.08317C8.94178 8.08317 8.08366 8.94129 8.08366 9.99984C8.08366 11.0584 8.94178 11.9165 10.0003 11.9165C11.0589 11.9165 11.917 11.0584 11.917 9.99984C11.917 8.94129 11.0589 8.08317 10.0003 8.08317ZM6.91699 9.99984C6.91699 8.29696 8.29745 6.9165 10.0003 6.9165C11.7032 6.9165 13.0837 8.29696 13.0837 9.99984C13.0837 11.7027 11.7032 13.0832 10.0003 13.0832C8.29745 13.0832 6.91699 11.7027 6.91699 9.99984Z" fill="#17266E"/>
</svg>
