<svg width="97" height="20" viewBox="0 0 97 20" fill="none" xmlns="http://www.w3.org/2000/svg">
<path d="M0.169434 0.680664H7.62158C9.50895 0.680664 11.0366 1.25618 12.2046 2.40723C13.381 3.55827 13.9692 5.07324 13.9692 6.95215C13.9692 8.82259 13.3641 10.3376 12.1538 11.4971C10.9435 12.6481 9.3693 13.2236 7.43115 13.2236H4.00342V19H0.169434V0.680664ZM4.00342 3.71484V10.2275H6.59326C7.69352 10.2275 8.54834 9.94401 9.15771 9.37695C9.76709 8.8099 10.0718 8.00586 10.0718 6.96484C10.0718 5.92383 9.76709 5.12402 9.15771 4.56543C8.5568 3.99837 7.70622 3.71484 6.60596 3.71484H4.00342ZM20.0757 3.67676V9.5166H23.3765C24.3413 9.5166 25.0903 9.25846 25.6235 8.74219C26.1652 8.22591 26.436 7.51074 26.436 6.59668C26.436 5.70801 26.1567 5.0013 25.5981 4.47656C25.0396 3.94336 24.2863 3.67676 23.3384 3.67676H20.0757ZM20.0757 12.2969V19H16.2417V0.680664H23.7446C25.8351 0.680664 27.4601 1.20117 28.6196 2.24219C29.7876 3.27474 30.3716 4.70085 30.3716 6.52051C30.3716 7.71387 30.0754 8.78027 29.4829 9.71973C28.8989 10.6507 28.0864 11.3193 27.0454 11.7256L30.9048 19H26.563L23.1479 12.2969H20.0757ZM45.0347 15.8262V19H32.8979V0.680664H45.0347V3.8418H36.7319V8.25977H44.5649V11.2051H36.7319V15.8262H45.0347ZM47.1167 13.7822H50.811C50.8957 14.527 51.2892 15.1322 51.9917 15.5977C52.7026 16.0547 53.5701 16.2832 54.5942 16.2832C55.6099 16.2832 56.4351 16.0674 57.0698 15.6357C57.7131 15.1956 58.0347 14.637 58.0347 13.96C58.0347 13.3675 57.7977 12.8893 57.3237 12.5254C56.8498 12.1615 56.0584 11.8568 54.9497 11.6113L52.563 11.0908C49.203 10.3714 47.5229 8.66602 47.5229 5.97461C47.5229 4.29883 48.1746 2.94466 49.478 1.91211C50.7899 0.879557 52.4741 0.363281 54.5308 0.363281C56.6466 0.363281 58.3351 0.866862 59.5962 1.87402C60.8573 2.87272 61.5047 4.20573 61.5386 5.87305H57.9458C57.8866 5.10286 57.5438 4.49772 56.9175 4.05762C56.2996 3.60905 55.5083 3.38477 54.5435 3.38477C53.5955 3.38477 52.8296 3.59212 52.2456 4.00684C51.6701 4.42155 51.3823 4.96745 51.3823 5.64453C51.3823 6.20312 51.6151 6.65592 52.0806 7.00293C52.5545 7.34993 53.3205 7.64616 54.3784 7.8916L56.6001 8.36133C58.4367 8.75065 59.7739 9.36003 60.6118 10.1895C61.4497 11.0104 61.8687 12.1191 61.8687 13.5156C61.8687 15.293 61.2 16.7064 59.8628 17.7559C58.5256 18.7969 56.7186 19.3174 54.4419 19.3174C52.2329 19.3174 50.4725 18.8265 49.1606 17.8447C47.8573 16.8545 47.1759 15.5003 47.1167 13.7822ZM63.5444 13.7822H67.2388C67.3234 14.527 67.717 15.1322 68.4194 15.5977C69.1304 16.0547 69.9979 16.2832 71.022 16.2832C72.0376 16.2832 72.8628 16.0674 73.4976 15.6357C74.1408 15.1956 74.4624 14.637 74.4624 13.96C74.4624 13.3675 74.2254 12.8893 73.7515 12.5254C73.2775 12.1615 72.4862 11.8568 71.3774 11.6113L68.9907 11.0908C65.6307 10.3714 63.9507 8.66602 63.9507 5.97461C63.9507 4.29883 64.6024 2.94466 65.9058 1.91211C67.2176 0.879557 68.9019 0.363281 70.9585 0.363281C73.0744 0.363281 74.7629 0.866862 76.0239 1.87402C77.285 2.87272 77.9325 4.20573 77.9663 5.87305H74.3735C74.3143 5.10286 73.9715 4.49772 73.3452 4.05762C72.7274 3.60905 71.936 3.38477 70.9712 3.38477C70.0233 3.38477 69.2573 3.59212 68.6733 4.00684C68.0978 4.42155 67.8101 4.96745 67.8101 5.64453C67.8101 6.20312 68.0428 6.65592 68.5083 7.00293C68.9823 7.34993 69.7482 7.64616 70.8062 7.8916L73.0278 8.36133C74.8644 8.75065 76.2017 9.36003 77.0396 10.1895C77.8774 11.0104 78.2964 12.1191 78.2964 13.5156C78.2964 15.293 77.6278 16.7064 76.2905 17.7559C74.9533 18.7969 73.1463 19.3174 70.8696 19.3174C68.6606 19.3174 66.9002 18.8265 65.5884 17.8447C64.285 16.8545 63.6037 15.5003 63.5444 13.7822ZM92.2739 19L90.8774 14.5566H84.4409L83.0444 19H79.1089L85.4692 0.680664H89.9761L96.3491 19H92.2739ZM87.6147 4.18457L85.2661 11.6875H90.0522L87.7036 4.18457H87.6147Z" fill="white"/>
</svg>
