<svg width="67" height="16" viewBox="0 0 67 16" fill="none" xmlns="http://www.w3.org/2000/svg">
<path d="M11.26 5.6C11.26 6.45333 11.06 7.23333 10.66 7.94C10.2733 8.63333 9.68 9.19333 8.88 9.62C8.09333 10.0333 7.12667 10.24 5.98 10.24H4.04V15H0.12V0.899999H5.98C7.11333 0.899999 8.07333 1.1 8.86 1.5C9.66 1.9 10.26 2.45333 10.66 3.16C11.06 3.86667 11.26 4.68 11.26 5.6ZM5.6 7.12C6.70667 7.12 7.26 6.61333 7.26 5.6C7.26 4.57333 6.70667 4.06 5.6 4.06H4.04V7.12H5.6ZM16.3548 5.76C16.7948 5.12 17.3282 4.61333 17.9548 4.24C18.5815 3.86667 19.2548 3.68 19.9748 3.68V7.86H18.8748C18.0215 7.86 17.3882 8.02667 16.9748 8.36C16.5615 8.69333 16.3548 9.27333 16.3548 10.1V15H12.4348V3.78H16.3548V5.76ZM31.7002 9.26C31.7002 9.56667 31.6802 9.87333 31.6402 10.18H24.2202C24.2602 10.7933 24.4268 11.2533 24.7202 11.56C25.0268 11.8533 25.4135 12 25.8802 12C26.5335 12 27.0002 11.7067 27.2802 11.12H31.4602C31.2868 11.8933 30.9468 12.5867 30.4402 13.2C29.9468 13.8 29.3202 14.2733 28.5602 14.62C27.8002 14.9667 26.9602 15.14 26.0402 15.14C24.9335 15.14 23.9468 14.9067 23.0802 14.44C22.2268 13.9733 21.5535 13.3067 21.0602 12.44C20.5802 11.5733 20.3402 10.5533 20.3402 9.38C20.3402 8.20667 20.5802 7.19333 21.0602 6.34C21.5402 5.47333 22.2068 4.80667 23.0602 4.34C23.9268 3.87333 24.9202 3.64 26.0402 3.64C27.1468 3.64 28.1268 3.86667 28.9802 4.32C29.8335 4.77333 30.5002 5.42667 30.9802 6.28C31.4602 7.12 31.7002 8.11333 31.7002 9.26ZM27.7002 8.28C27.7002 7.8 27.5402 7.42667 27.2202 7.16C26.9002 6.88 26.5002 6.74 26.0202 6.74C25.5402 6.74 25.1468 6.87333 24.8402 7.14C24.5335 7.39333 24.3335 7.77333 24.2402 8.28H27.7002ZM37.6844 15.14C36.671 15.14 35.7644 14.9733 34.9644 14.64C34.1777 14.2933 33.551 13.8267 33.0844 13.24C32.631 12.64 32.3777 11.9667 32.3244 11.22H36.1244C36.1777 11.58 36.3444 11.86 36.6244 12.06C36.9044 12.26 37.251 12.36 37.6644 12.36C37.9844 12.36 38.2377 12.2933 38.4244 12.16C38.611 12.0267 38.7044 11.8533 38.7044 11.64C38.7044 11.36 38.551 11.1533 38.2444 11.02C37.9377 10.8867 37.431 10.74 36.7244 10.58C35.9244 10.42 35.2577 10.24 34.7244 10.04C34.191 9.84 33.7244 9.51333 33.3244 9.06C32.9377 8.60667 32.7444 7.99333 32.7444 7.22C32.7444 6.55333 32.9244 5.95333 33.2844 5.42C33.6444 4.87333 34.171 4.44 34.8644 4.12C35.571 3.8 36.4177 3.64 37.4044 3.64C38.871 3.64 40.0244 4 40.8644 4.72C41.7044 5.44 42.191 6.38667 42.3244 7.56H38.7844C38.7177 7.2 38.5577 6.92667 38.3044 6.74C38.0644 6.54 37.7377 6.44 37.3244 6.44C37.0044 6.44 36.7577 6.5 36.5844 6.62C36.4244 6.74 36.3444 6.90667 36.3444 7.12C36.3444 7.38667 36.4977 7.59333 36.8044 7.74C37.111 7.87333 37.6044 8.01333 38.2844 8.16C39.0977 8.33333 39.771 8.52667 40.3044 8.74C40.851 8.95333 41.3244 9.3 41.7244 9.78C42.1377 10.2467 42.3444 10.8867 42.3444 11.7C42.3444 12.3533 42.151 12.94 41.7644 13.46C41.391 13.98 40.851 14.3933 40.1444 14.7C39.451 14.9933 38.631 15.14 37.6844 15.14ZM48.6516 15.14C47.6382 15.14 46.7316 14.9733 45.9316 14.64C45.1449 14.2933 44.5182 13.8267 44.0516 13.24C43.5982 12.64 43.3449 11.9667 43.2916 11.22H47.0916C47.1449 11.58 47.3116 11.86 47.5916 12.06C47.8716 12.26 48.2182 12.36 48.6316 12.36C48.9516 12.36 49.2049 12.2933 49.3916 12.16C49.5782 12.0267 49.6716 11.8533 49.6716 11.64C49.6716 11.36 49.5182 11.1533 49.2116 11.02C48.9049 10.8867 48.3982 10.74 47.6916 10.58C46.8916 10.42 46.2249 10.24 45.6916 10.04C45.1582 9.84 44.6916 9.51333 44.2916 9.06C43.9049 8.60667 43.7116 7.99333 43.7116 7.22C43.7116 6.55333 43.8916 5.95333 44.2516 5.42C44.6116 4.87333 45.1382 4.44 45.8316 4.12C46.5382 3.8 47.3849 3.64 48.3716 3.64C49.8382 3.64 50.9916 4 51.8316 4.72C52.6716 5.44 53.1582 6.38667 53.2916 7.56H49.7516C49.6849 7.2 49.5249 6.92667 49.2716 6.74C49.0316 6.54 48.7049 6.44 48.2916 6.44C47.9716 6.44 47.7249 6.5 47.5516 6.62C47.3916 6.74 47.3116 6.90667 47.3116 7.12C47.3116 7.38667 47.4649 7.59333 47.7716 7.74C48.0782 7.87333 48.5716 8.01333 49.2516 8.16C50.0649 8.33333 50.7382 8.52667 51.2716 8.74C51.8182 8.95333 52.2916 9.3 52.6916 9.78C53.1049 10.2467 53.3116 10.8867 53.3116 11.7C53.3116 12.3533 53.1182 12.94 52.7316 13.46C52.3582 13.98 51.8182 14.3933 51.1116 14.7C50.4182 14.9933 49.5982 15.14 48.6516 15.14ZM54.1988 9.38C54.1988 8.22 54.4054 7.20667 54.8188 6.34C55.2454 5.47333 55.8188 4.80667 56.5388 4.34C57.2721 3.87333 58.0854 3.64 58.9788 3.64C59.7521 3.64 60.4188 3.79333 60.9788 4.1C61.5388 4.40667 61.9721 4.82 62.2788 5.34V3.78H66.1988V15H62.2788V13.44C61.9721 13.96 61.5321 14.3733 60.9588 14.68C60.3988 14.9867 59.7388 15.14 58.9788 15.14C58.0854 15.14 57.2721 14.9067 56.5388 14.44C55.8188 13.9733 55.2454 13.3067 54.8188 12.44C54.4054 11.56 54.1988 10.54 54.1988 9.38ZM62.2788 9.38C62.2788 8.66 62.0788 8.09333 61.6788 7.68C61.2921 7.26667 60.8121 7.06 60.2388 7.06C59.6521 7.06 59.1654 7.26667 58.7788 7.68C58.3921 8.08 58.1988 8.64667 58.1988 9.38C58.1988 10.1 58.3921 10.6733 58.7788 11.1C59.1654 11.5133 59.6521 11.72 60.2388 11.72C60.8121 11.72 61.2921 11.5133 61.6788 11.1C62.0788 10.6867 62.2788 10.1133 62.2788 9.38Z" fill="#17266E"/>
</svg>
