<svg width="79" height="30" viewBox="0 0 79 30" fill="none" xmlns="http://www.w3.org/2000/svg">
<path d="M9.62891 15.1855C9.62891 14.4368 9.43034 13.903 9.0332 13.584C8.64258 13.265 8.09245 13.1055 7.38281 13.1055H4.58008V17.3438H7.38281C8.09245 17.3438 8.64258 17.1712 9.0332 16.8262C9.43034 16.4811 9.62891 15.9342 9.62891 15.1855ZM12.6074 15.166C12.6074 16.8652 12.1777 18.0664 11.3184 18.7695C10.459 19.4727 9.23177 19.8242 7.63672 19.8242H4.58008V25H1.5918V10.6055H7.86133C9.30664 10.6055 10.459 10.9766 11.3184 11.7188C12.1777 12.4609 12.6074 13.61 12.6074 15.166ZM20.0199 14.1016C20.072 14.1016 20.1143 14.1048 20.1469 14.1113C20.1859 14.1113 20.2673 14.1146 20.391 14.1211V16.9727C20.2152 16.9531 20.059 16.9401 19.9223 16.9336C19.7855 16.9271 19.6749 16.9238 19.5902 16.9238C18.4704 16.9238 17.7185 17.2884 17.3344 18.0176C17.1195 18.4277 17.0121 19.0592 17.0121 19.9121V25H14.2094V14.3555H16.8656V16.2109C17.2953 15.5013 17.6697 15.0163 17.9887 14.7559C18.5095 14.3197 19.1866 14.1016 20.0199 14.1016ZM25.8309 16.3672C25.1863 16.3672 24.685 16.569 24.327 16.9727C23.9754 17.3763 23.754 17.9232 23.6629 18.6133H27.9891C27.9435 17.8776 27.7189 17.321 27.3152 16.9434C26.9181 16.5592 26.4233 16.3672 25.8309 16.3672ZM25.8309 14.0723C26.7163 14.0723 27.5138 14.2383 28.2234 14.5703C28.9331 14.9023 29.519 15.4264 29.9813 16.1426C30.3979 16.7741 30.6681 17.5065 30.7918 18.3398C30.8634 18.8281 30.8927 19.5312 30.8797 20.4492H23.5945C23.6336 21.5169 23.9689 22.2656 24.6004 22.6953C24.9845 22.9622 25.4467 23.0957 25.9871 23.0957C26.56 23.0957 27.0255 22.9329 27.3836 22.6074C27.5789 22.4316 27.7514 22.1875 27.9012 21.875H30.743C30.6714 22.5065 30.3426 23.1478 29.7566 23.7988C28.8452 24.834 27.5691 25.3516 25.9285 25.3516C24.5743 25.3516 23.3797 24.9154 22.3445 24.043C21.3094 23.1706 20.7918 21.7513 20.7918 19.7852C20.7918 17.9427 21.2573 16.5299 22.1883 15.5469C23.1258 14.5638 24.34 14.0723 25.8309 14.0723ZM34.5324 21.6016C34.591 22.0964 34.718 22.4479 34.9133 22.6562C35.2583 23.0273 35.8964 23.2129 36.8273 23.2129C37.3742 23.2129 37.8072 23.1315 38.1262 22.9688C38.4517 22.806 38.6145 22.5618 38.6145 22.2363C38.6145 21.9238 38.4842 21.6862 38.2238 21.5234C37.9634 21.3607 36.9966 21.0807 35.3234 20.6836C34.119 20.3841 33.2694 20.0098 32.7746 19.5605C32.2798 19.1178 32.0324 18.4798 32.0324 17.6465C32.0324 16.6634 32.4165 15.8203 33.1848 15.1172C33.9595 14.4076 35.0467 14.0527 36.4465 14.0527C37.7746 14.0527 38.8553 14.3197 39.6887 14.8535C40.5285 15.3809 41.0103 16.2956 41.134 17.5977H38.3508C38.3117 17.2396 38.2108 16.9564 38.048 16.748C37.7421 16.3704 37.2212 16.1816 36.4855 16.1816C35.8801 16.1816 35.4471 16.276 35.1867 16.4648C34.9328 16.6536 34.8059 16.875 34.8059 17.1289C34.8059 17.4479 34.9426 17.679 35.216 17.8223C35.4895 17.972 36.4562 18.2292 38.1164 18.5938C39.2232 18.8542 40.0533 19.248 40.6066 19.7754C41.1535 20.3092 41.427 20.9766 41.427 21.7773C41.427 22.832 41.0331 23.6947 40.2453 24.3652C39.4641 25.0293 38.2531 25.3613 36.6125 25.3613C34.9393 25.3613 33.7023 25.0098 32.9016 24.3066C32.1073 23.597 31.7102 22.6953 31.7102 21.6016H34.5324ZM45.2652 21.6016C45.3238 22.0964 45.4508 22.4479 45.6461 22.6562C45.9911 23.0273 46.6292 23.2129 47.5602 23.2129C48.107 23.2129 48.54 23.1315 48.859 22.9688C49.1845 22.806 49.3473 22.5618 49.3473 22.2363C49.3473 21.9238 49.2171 21.6862 48.9566 21.5234C48.6962 21.3607 47.7294 21.0807 46.0563 20.6836C44.8518 20.3841 44.0022 20.0098 43.5074 19.5605C43.0126 19.1178 42.7652 18.4798 42.7652 17.6465C42.7652 16.6634 43.1494 15.8203 43.9176 15.1172C44.6923 14.4076 45.7796 14.0527 47.1793 14.0527C48.5074 14.0527 49.5882 14.3197 50.4215 14.8535C51.2613 15.3809 51.7431 16.2956 51.8668 17.5977H49.0836C49.0445 17.2396 48.9436 16.9564 48.7809 16.748C48.4749 16.3704 47.954 16.1816 47.2184 16.1816C46.6129 16.1816 46.1799 16.276 45.9195 16.4648C45.6656 16.6536 45.5387 16.875 45.5387 17.1289C45.5387 17.4479 45.6754 17.679 45.9488 17.8223C46.2223 17.972 47.1891 18.2292 48.8492 18.5938C49.956 18.8542 50.7861 19.248 51.3395 19.7754C51.8863 20.3092 52.1598 20.9766 52.1598 21.7773C52.1598 22.832 51.7659 23.6947 50.9781 24.3652C50.1969 25.0293 48.9859 25.3613 47.3453 25.3613C45.6721 25.3613 44.4352 25.0098 43.6344 24.3066C42.8401 23.597 42.443 22.6953 42.443 21.6016H45.2652ZM59.6992 19.8242C59.5234 19.9349 59.3444 20.026 59.1621 20.0977C58.9863 20.1628 58.7422 20.2246 58.4297 20.2832L57.8047 20.4004C57.2188 20.5046 56.7988 20.6315 56.5449 20.7812C56.1152 21.0352 55.9004 21.429 55.9004 21.9629C55.9004 22.4382 56.0306 22.7832 56.291 22.998C56.5579 23.2064 56.8802 23.3105 57.2578 23.3105C57.8568 23.3105 58.4069 23.1348 58.9082 22.7832C59.416 22.4316 59.6797 21.7904 59.6992 20.8594V19.8242ZM58.0098 18.5254C58.5241 18.4603 58.8919 18.3789 59.1133 18.2812C59.5104 18.112 59.709 17.8483 59.709 17.4902C59.709 17.054 59.556 16.7546 59.25 16.5918C58.9505 16.4225 58.5078 16.3379 57.9219 16.3379C57.2643 16.3379 56.7988 16.5007 56.5254 16.8262C56.3301 17.0671 56.1999 17.3926 56.1348 17.8027H53.4492C53.5078 16.8717 53.7682 16.1068 54.2305 15.5078C54.9661 14.5703 56.2292 14.1016 58.0195 14.1016C59.1849 14.1016 60.2201 14.3327 61.125 14.7949C62.0299 15.2572 62.4824 16.1296 62.4824 17.4121V22.2949C62.4824 22.6335 62.4889 23.0436 62.502 23.5254C62.5215 23.89 62.5768 24.1374 62.668 24.2676C62.7591 24.3978 62.8958 24.5052 63.0781 24.5898V25H60.0508C59.9661 24.7852 59.9076 24.5833 59.875 24.3945C59.8424 24.2057 59.8164 23.9909 59.7969 23.75C59.4128 24.1667 58.9701 24.5215 58.4688 24.8145C57.8698 25.1595 57.1927 25.332 56.4375 25.332C55.474 25.332 54.6764 25.0586 54.0449 24.5117C53.4199 23.9583 53.1074 23.1771 53.1074 22.168C53.1074 20.8594 53.612 19.9121 54.6211 19.3262C55.1745 19.0072 55.9883 18.7793 57.0625 18.6426L58.0098 18.5254Z" fill="url(#paint0_linear_586_8344)"/>
<path d="M65.9366 19.2792C66.0537 17.4594 65.5373 15.6043 64.3384 14.066C63.1394 12.5277 61.4666 11.5739 59.6699 11.2428C59.6193 11.2344 59.567 11.2458 59.524 11.2748C59.481 11.3037 59.4506 11.3479 59.4391 11.398L59.138 12.7399C59.1148 12.8472 59.183 12.9509 59.2904 12.9718C60.6907 13.2213 61.9969 13.9625 62.9319 15.1622C63.8669 16.3619 64.2667 17.8095 64.1687 19.2268C64.1628 19.336 64.2467 19.4275 64.3563 19.4313L65.7312 19.4669C65.8374 19.4702 65.9291 19.3864 65.9366 19.2792ZM70.4241 19.3924C70.5449 16.5701 69.7127 13.7095 67.8546 11.3255C65.9965 8.94144 63.4257 7.43584 60.6579 6.86194C60.6069 6.85172 60.5535 6.86206 60.5093 6.8907C60.4652 6.91935 60.4339 6.96398 60.4222 7.01485L60.121 8.35681C60.0964 8.46215 60.1646 8.56582 60.2685 8.58633C62.6448 9.08093 64.854 10.3763 66.4481 12.4217C68.0423 14.467 68.759 16.9256 68.6568 19.3488C68.6528 19.4565 68.7352 19.5461 68.8434 19.5479L70.2182 19.5835C70.3264 19.5854 70.4201 19.5001 70.4241 19.3924ZM74.8796 19.5089C75.0149 15.6697 73.8656 11.7859 71.341 8.54666C68.8327 5.32844 65.3776 3.27253 61.6495 2.45363C61.6241 2.44789 61.5976 2.4473 61.5717 2.4519C61.5458 2.4565 61.521 2.46619 61.4987 2.4804C61.4764 2.49461 61.4571 2.51306 61.442 2.53466C61.4268 2.55625 61.4161 2.58056 61.4105 2.60615L61.1093 3.94811C61.0866 4.05193 61.1514 4.15521 61.2533 4.17724C64.5953 4.9157 67.6872 6.75948 69.9345 9.64287C72.1982 12.5473 73.2289 16.0252 73.1119 19.4688C73.1079 19.5765 73.1923 19.6646 73.3004 19.6664L74.6753 19.702C74.785 19.7057 74.8771 19.6185 74.8796 19.5089Z" fill="url(#paint1_linear_586_8344)"/>
<defs>
<linearGradient id="paint0_linear_586_8344" x1="-26.2436" y1="28.0833" x2="64.2061" y2="7.16328" gradientUnits="userSpaceOnUse">
<stop stop-color="#17266E"/>
<stop offset="1" stop-color="#526EFF"/>
</linearGradient>
<linearGradient id="paint1_linear_586_8344" x1="50.3287" y1="-0.112139" x2="73.4718" y2="22.0001" gradientUnits="userSpaceOnUse">
<stop stop-color="#17266E"/>
<stop offset="1" stop-color="#526EFF"/>
</linearGradient>
</defs>
</svg>
