<svg width="114" height="43" viewBox="0 0 114 43" fill="none" xmlns="http://www.w3.org/2000/svg">
<path d="M97.5791 26.285C97.7464 23.8214 97.0655 21.2629 95.4687 19.0839C93.872 16.905 91.6374 15.485 89.2332 14.9016C89.1655 14.8864 89.0955 14.8981 89.0377 14.9342C88.98 14.9703 88.939 15.0281 88.9234 15.0953L88.5124 16.8961C88.4808 17.04 88.5716 17.1859 88.7152 17.2223C90.5889 17.6654 92.3338 18.7694 93.5791 20.4687C94.8243 22.1679 95.3514 24.1643 95.2122 26.0826C95.2036 26.2305 95.3154 26.361 95.4622 26.3742L97.3031 26.5248C97.4453 26.5372 97.5686 26.4302 97.5791 26.285ZM103.588 26.7722C103.766 22.947 102.667 18.9988 100.193 15.622C97.7182 12.2452 94.2843 10.0088 90.5812 9.02346C90.513 9.00578 90.4414 9.01586 90.3821 9.0515C90.3228 9.08714 90.2807 9.14544 90.2647 9.21369L89.8538 11.0144C89.8202 11.1557 89.911 11.3016 90.05 11.3372C93.2293 12.1857 96.1801 14.1096 98.3032 17.0068C100.426 19.9039 101.372 23.2972 101.221 26.5817C101.215 26.7277 101.325 26.8555 101.47 26.866L103.311 27.0166C103.456 27.0271 103.582 26.9182 103.588 26.7722ZM109.553 27.2615C109.756 22.0559 108.24 16.6942 104.877 12.1059C101.537 7.54745 96.9218 4.49773 91.9343 3.10825C91.9002 3.09856 91.8648 3.09579 91.83 3.10011C91.7953 3.10443 91.762 3.11575 91.7321 3.13341C91.7022 3.15106 91.6763 3.17469 91.6558 3.2029C91.6354 3.23112 91.6209 3.26335 91.6132 3.2977L91.2023 5.09843C91.1713 5.23778 91.2574 5.38291 91.3938 5.42041C95.8649 6.67193 99.9946 9.40649 102.988 13.4907C106.002 17.6047 107.363 22.4061 107.187 27.0757C107.181 27.2217 107.293 27.3476 107.438 27.3581L109.279 27.5087C109.426 27.5219 109.549 27.4102 109.553 27.2615Z" fill="url(#paint0_linear_602_2053)"/>
<path d="M14.4434 21.2783C14.4434 20.1553 14.1455 19.3545 13.5498 18.876C12.9639 18.3975 12.1387 18.1582 11.0742 18.1582H6.87012V24.5156H11.0742C12.1387 24.5156 12.9639 24.2568 13.5498 23.7393C14.1455 23.2217 14.4434 22.4014 14.4434 21.2783ZM18.9111 21.249C18.9111 23.7979 18.2666 25.5996 16.9775 26.6543C15.6885 27.709 13.8477 28.2363 11.4551 28.2363H6.87012V36H2.3877V14.4082H11.792C13.96 14.4082 15.6885 14.9648 16.9775 16.0781C18.2666 17.1914 18.9111 18.915 18.9111 21.249ZM30.0299 19.6523C30.108 19.6523 30.1715 19.6572 30.2203 19.667C30.2789 19.667 30.401 19.6719 30.5865 19.6816V23.959C30.3229 23.9297 30.0885 23.9102 29.8834 23.9004C29.6783 23.8906 29.5123 23.8857 29.3854 23.8857C27.7057 23.8857 26.5777 24.4326 26.0016 25.5264C25.6793 26.1416 25.5182 27.0889 25.5182 28.3682V36H21.3141V20.0332H25.2984V22.8164C25.943 21.752 26.5045 21.0244 26.983 20.6338C27.7643 19.9795 28.7799 19.6523 30.0299 19.6523ZM38.7463 23.0508C37.7795 23.0508 37.0275 23.3535 36.4904 23.959C35.9631 24.5645 35.6311 25.3848 35.4943 26.4199H41.9836C41.9152 25.3164 41.5783 24.4814 40.9729 23.915C40.3771 23.3389 39.635 23.0508 38.7463 23.0508ZM38.7463 19.6084C40.0744 19.6084 41.2707 19.8574 42.3352 20.3555C43.3996 20.8535 44.2785 21.6396 44.9719 22.7139C45.5969 23.6611 46.0021 24.7598 46.1877 26.0098C46.2951 26.7422 46.3391 27.7969 46.3195 29.1738H35.3918C35.4504 30.7754 35.9533 31.8984 36.9006 32.543C37.4768 32.9434 38.1701 33.1436 38.9807 33.1436C39.84 33.1436 40.5383 32.8994 41.0754 32.4111C41.3684 32.1475 41.6271 31.7812 41.8518 31.3125H46.1145C46.007 32.2598 45.5139 33.2217 44.635 34.1982C43.2678 35.751 41.3537 36.5273 38.8928 36.5273C36.8615 36.5273 35.0695 35.873 33.5168 34.5645C31.9641 33.2559 31.1877 31.127 31.1877 28.1777C31.1877 25.4141 31.8859 23.2949 33.2824 21.8203C34.6887 20.3457 36.51 19.6084 38.7463 19.6084ZM51.7986 30.9023C51.8865 31.6445 52.077 32.1719 52.3699 32.4844C52.8875 33.041 53.8445 33.3193 55.241 33.3193C56.0613 33.3193 56.7107 33.1973 57.1893 32.9531C57.6775 32.709 57.9217 32.3428 57.9217 31.8545C57.9217 31.3857 57.7264 31.0293 57.3357 30.7852C56.9451 30.541 55.4949 30.1211 52.9852 29.5254C51.1785 29.0762 49.9041 28.5146 49.1619 27.8408C48.4197 27.1768 48.0486 26.2197 48.0486 24.9697C48.0486 23.4951 48.6248 22.2305 49.7771 21.1758C50.9393 20.1113 52.5701 19.5791 54.6697 19.5791C56.6619 19.5791 58.283 19.9795 59.533 20.7803C60.7928 21.5713 61.5154 22.9434 61.701 24.8965H57.5262C57.4676 24.3594 57.3162 23.9346 57.0721 23.6221C56.6131 23.0557 55.8318 22.7725 54.7283 22.7725C53.8201 22.7725 53.1707 22.9141 52.7801 23.1973C52.3992 23.4805 52.2088 23.8125 52.2088 24.1934C52.2088 24.6719 52.4139 25.0186 52.824 25.2334C53.2342 25.458 54.6844 25.8438 57.1746 26.3906C58.8348 26.7812 60.0799 27.3721 60.91 28.1631C61.7303 28.9639 62.1404 29.9648 62.1404 31.166C62.1404 32.748 61.5496 34.042 60.368 35.0479C59.1961 36.0439 57.3797 36.542 54.9188 36.542C52.409 36.542 50.5535 36.0146 49.3523 34.96C48.1609 33.8955 47.5652 32.543 47.5652 30.9023H51.7986ZM67.8979 30.9023C67.9857 31.6445 68.1762 32.1719 68.4691 32.4844C68.9867 33.041 69.9437 33.3193 71.3402 33.3193C72.1605 33.3193 72.81 33.1973 73.2885 32.9531C73.7768 32.709 74.0209 32.3428 74.0209 31.8545C74.0209 31.3857 73.8256 31.0293 73.435 30.7852C73.0443 30.541 71.5941 30.1211 69.0844 29.5254C67.2777 29.0762 66.0033 28.5146 65.2611 27.8408C64.5189 27.1768 64.1479 26.2197 64.1479 24.9697C64.1479 23.4951 64.724 22.2305 65.8764 21.1758C67.0385 20.1113 68.6693 19.5791 70.7689 19.5791C72.7611 19.5791 74.3822 19.9795 75.6322 20.7803C76.892 21.5713 77.6146 22.9434 77.8002 24.8965H73.6254C73.5668 24.3594 73.4154 23.9346 73.1713 23.6221C72.7123 23.0557 71.9311 22.7725 70.8275 22.7725C69.9193 22.7725 69.2699 22.9141 68.8793 23.1973C68.4984 23.4805 68.308 23.8125 68.308 24.1934C68.308 24.6719 68.5131 25.0186 68.9232 25.2334C69.3334 25.458 70.7836 25.8438 73.2738 26.3906C74.934 26.7812 76.1791 27.3721 77.0092 28.1631C77.8295 28.9639 78.2396 29.9648 78.2396 31.166C78.2396 32.748 77.6488 34.042 76.4672 35.0479C75.2953 36.0439 73.4789 36.542 71.018 36.542C68.5082 36.542 66.6527 36.0146 65.4516 34.96C64.2602 33.8955 63.6645 32.543 63.6645 30.9023H67.8979ZM89.5488 28.2363C89.2852 28.4023 89.0166 28.5391 88.7432 28.6465C88.4795 28.7441 88.1133 28.8369 87.6445 28.9248L86.707 29.1006C85.8281 29.2568 85.1982 29.4473 84.8174 29.6719C84.1729 30.0527 83.8506 30.6436 83.8506 31.4443C83.8506 32.1572 84.0459 32.6748 84.4365 32.9971C84.8369 33.3096 85.3203 33.4658 85.8867 33.4658C86.7852 33.4658 87.6104 33.2021 88.3623 32.6748C89.124 32.1475 89.5195 31.1855 89.5488 29.7891V28.2363ZM87.0146 26.2881C87.7861 26.1904 88.3379 26.0684 88.6699 25.9219C89.2656 25.668 89.5635 25.2725 89.5635 24.7354C89.5635 24.0811 89.334 23.6318 88.875 23.3877C88.4258 23.1338 87.7617 23.0068 86.8828 23.0068C85.8965 23.0068 85.1982 23.251 84.7881 23.7393C84.4951 24.1006 84.2998 24.5889 84.2021 25.2041H80.1738C80.2617 23.8076 80.6523 22.6602 81.3457 21.7617C82.4492 20.3555 84.3438 19.6523 87.0293 19.6523C88.7773 19.6523 90.3301 19.999 91.6875 20.6924C93.0449 21.3857 93.7236 22.6943 93.7236 24.6182V31.9424C93.7236 32.4502 93.7334 33.0654 93.7529 33.7881C93.7822 34.335 93.8652 34.7061 94.002 34.9014C94.1387 35.0967 94.3438 35.2578 94.6172 35.3848V36H90.0762C89.9492 35.6777 89.8613 35.375 89.8125 35.0918C89.7637 34.8086 89.7246 34.4863 89.6953 34.125C89.1191 34.75 88.4551 35.2822 87.7031 35.7217C86.8047 36.2393 85.7891 36.498 84.6562 36.498C83.2109 36.498 82.0146 36.0879 81.0674 35.2676C80.1299 34.4375 79.6611 33.2656 79.6611 31.752C79.6611 29.7891 80.418 28.3682 81.9316 27.4893C82.7617 27.0107 83.9824 26.6689 85.5938 26.4639L87.0146 26.2881Z" fill="url(#paint1_linear_602_2053)"/>
<defs>
<linearGradient id="paint0_linear_602_2053" x1="76.7892" y1="-1.21853" x2="108.131" y2="30.0639" gradientUnits="userSpaceOnUse">
<stop stop-color="white"/>
<stop offset="1" stop-color="white"/>
</linearGradient>
<linearGradient id="paint1_linear_602_2053" x1="-39.3654" y1="40.1667" x2="96.1054" y2="8.37294" gradientUnits="userSpaceOnUse">
<stop stop-color="white"/>
<stop offset="1" stop-color="white"/>
</linearGradient>
</defs>
</svg>
