<svg width="24" height="24" viewBox="0 0 24 24" fill="none" xmlns="http://www.w3.org/2000/svg">
<path d="M20.2504 22.4995C19.6537 22.4995 19.0814 22.2625 18.6594 21.8405C18.2374 21.4186 18.0004 20.8463 18.0004 20.2495C18.0004 19.6528 18.2374 19.0805 18.6594 18.6585C19.0814 18.2366 19.6537 17.9995 20.2504 17.9995C20.8471 17.9995 21.4194 18.2366 21.8414 18.6585C22.2633 19.0805 22.5004 19.6528 22.5004 20.2495C22.5004 20.8463 22.2633 21.4186 21.8414 21.8405C21.4194 22.2625 20.8471 22.4995 20.2504 22.4995ZM16.5004 20.2495C16.5003 21.1294 16.8096 21.9813 17.3741 22.6561C17.9386 23.331 18.7225 23.7858 19.5885 23.9411C20.4546 24.0964 21.3476 23.9422 22.1115 23.5056C22.8753 23.0689 23.4613 22.3776 23.7669 21.5525C24.0725 20.7274 24.0783 19.8212 23.7832 18.9923C23.4881 18.1634 22.9109 17.4646 22.1527 17.0183C21.3945 16.572 20.5034 16.4065 19.6355 16.5508C18.7675 16.695 17.978 17.1399 17.4049 17.8075L7.3279 13.1275C7.55956 12.3934 7.55956 11.6057 7.3279 10.8715L17.4049 6.19153C18.0107 6.89603 18.8564 7.35057 19.7782 7.46705C20.7 7.58353 21.6322 7.35366 22.3942 6.82199C23.1561 6.29032 23.6936 5.49471 23.9024 4.58934C24.1112 3.68398 23.9764 2.73335 23.5243 1.92167C23.0721 1.10999 22.3347 0.495077 21.455 0.196095C20.5753 -0.102886 19.6159 -0.0646439 18.7628 0.303413C17.9097 0.671471 17.2236 1.34313 16.8375 2.18822C16.4513 3.03332 16.3927 3.99166 16.6729 4.87753L6.5959 9.55753C6.09705 8.97617 5.43212 8.56154 4.69057 8.3694C3.94901 8.17726 3.1664 8.21684 2.448 8.48281C1.72961 8.74878 1.10991 9.22838 0.672259 9.8571C0.234606 10.4858 0 11.2335 0 11.9995C0 12.7656 0.234606 13.5132 0.672259 14.142C1.10991 14.7707 1.72961 15.2503 2.448 15.5162C3.1664 15.7822 3.94901 15.8218 4.69057 15.6297C5.43212 15.4375 6.09705 15.0229 6.5959 14.4415L16.6729 19.1215C16.5582 19.4865 16.5 19.8669 16.5004 20.2495ZM3.7504 14.2495C3.15366 14.2495 2.58136 14.0125 2.15941 13.5905C1.73745 13.1686 1.5004 12.5963 1.5004 11.9995C1.5004 11.4028 1.73745 10.8305 2.15941 10.4085C2.58136 9.98658 3.15366 9.74953 3.7504 9.74953C4.34714 9.74953 4.91943 9.98658 5.34139 10.4085C5.76335 10.8305 6.0004 11.4028 6.0004 11.9995C6.0004 12.5963 5.76335 13.1686 5.34139 13.5905C4.91943 14.0125 4.34714 14.2495 3.7504 14.2495ZM20.2504 5.99953C19.6537 5.99953 19.0814 5.76248 18.6594 5.34052C18.2374 4.91856 18.0004 4.34627 18.0004 3.74953C18.0004 3.15279 18.2374 2.5805 18.6594 2.15854C19.0814 1.73658 19.6537 1.49953 20.2504 1.49953C20.8471 1.49953 21.4194 1.73658 21.8414 2.15854C22.2633 2.5805 22.5004 3.15279 22.5004 3.74953C22.5004 4.34627 22.2633 4.91856 21.8414 5.34052C21.4194 5.76248 20.8471 5.99953 20.2504 5.99953Z" fill="white"/>
</svg>
