<svg width="13" height="11" viewBox="0 0 13 11" fill="none" xmlns="http://www.w3.org/2000/svg">
<path d="M4.80041 5.5C4.80041 5.93512 4.97326 6.35242 5.28094 6.6601C5.58862 6.96777 6.00592 7.14062 6.44104 7.14062C6.87616 7.14062 7.29346 6.96777 7.60114 6.6601C7.90882 6.35242 8.08167 5.93512 8.08167 5.5C8.08167 5.06488 7.90882 4.64758 7.60114 4.3399C7.29346 4.03223 6.87616 3.85938 6.44104 3.85938C6.00592 3.85938 5.58862 4.03223 5.28094 4.3399C4.97326 4.64758 4.80041 5.06488 4.80041 5.5ZM12.8014 5.12207C11.4127 2.19678 9.3136 0.724609 6.49963 0.724609C3.6842 0.724609 1.58654 2.19678 0.197869 5.12354C0.142169 5.24148 0.113281 5.3703 0.113281 5.50073C0.113281 5.63117 0.142169 5.75998 0.197869 5.87793C1.58654 8.80322 3.68567 10.2754 6.49963 10.2754C9.31507 10.2754 11.4127 8.80322 12.8014 5.87646C12.9142 5.63916 12.9142 5.36377 12.8014 5.12207ZM6.44104 8.07812C5.01721 8.07812 3.86291 6.92383 3.86291 5.5C3.86291 4.07617 5.01721 2.92188 6.44104 2.92188C7.86487 2.92188 9.01917 4.07617 9.01917 5.5C9.01917 6.92383 7.86487 8.07812 6.44104 8.07812Z" fill="white"/>
</svg>
